<svg viewBox="0 0 24 24" fill="none" xmlns="http://www.w3.org/2000/svg">
<path d="M12.2199 21C10.7577 21 9.456 20.8014 8.31468 20.4043C7.17337 20.0118 6.20852 19.4344 5.42014 18.6721C4.63176 17.9144 4.03131 16.9878 3.61879 15.8924C3.20626 14.7969 3 13.5508 3 12.1541C3 10.7756 3.20626 9.52491 3.61879 8.40205C4.03589 7.27919 4.64322 6.31609 5.44077 5.51274C6.23831 4.70483 7.21233 4.08406 8.36281 3.65044C9.51788 3.21681 10.8334 3 12.3093 3C13.6752 3 14.8944 3.19855 15.967 3.59566C17.0442 3.99277 17.9563 4.55877 18.7034 5.29365C19.4551 6.02396 20.0258 6.8935 20.4154 7.90225C20.8096 8.90643 21.0044 10.0179 20.9998 11.2366C21.0044 12.0765 20.931 12.8479 20.7798 13.5508C20.6285 14.2537 20.3902 14.8676 20.0647 15.3925C19.7439 15.9129 19.3222 16.326 18.7997 16.6318C18.2771 16.9331 17.6446 17.1042 16.9021 17.1453C16.3704 17.1864 15.9395 17.1476 15.6095 17.0289C15.2795 16.9102 15.0274 16.7345 14.8532 16.5017C14.6836 16.2644 14.5736 15.9882 14.5232 15.6733H14.4407C14.3307 15.9471 14.1152 16.1959 13.7944 16.4196C13.4735 16.6386 13.0816 16.8098 12.6187 16.9331C12.1603 17.0517 11.6722 17.0951 11.1542 17.0631C10.6134 17.0312 10.1 16.9057 9.61413 16.6866C9.13286 16.4675 8.70429 16.1502 8.32843 15.7349C7.95716 15.3195 7.66381 14.806 7.44838 14.1944C7.23754 13.5827 7.12982 12.8752 7.12524 12.0719C7.12982 11.2777 7.24212 10.5862 7.46213 9.99734C7.68673 9.40852 7.98237 8.91328 8.34906 8.5116C8.72033 8.10993 9.13286 7.79498 9.58663 7.56676C10.0404 7.33853 10.4965 7.19247 10.9548 7.12857C11.4728 7.05097 11.9632 7.05097 12.4262 7.12857C12.8891 7.20616 13.2787 7.33169 13.595 7.50514C13.9158 7.67859 14.1152 7.86573 14.1932 8.06657H14.2894V7.29973H16.4414V13.9821C16.446 14.2971 16.517 14.5413 16.6545 14.7147C16.7921 14.8882 16.9777 14.9749 17.2115 14.9749C17.5277 14.9749 17.7913 14.8357 18.0021 14.5572C18.2176 14.2788 18.378 13.852 18.4834 13.2769C18.5934 12.7018 18.6484 11.9692 18.6484 11.0791C18.6484 10.221 18.5338 9.46786 18.3046 8.8197C18.08 8.16698 17.7638 7.6124 17.3558 7.15595C16.9525 6.69494 16.4827 6.32065 15.9464 6.03309C15.4101 5.74553 14.828 5.53556 14.2 5.4032C13.5767 5.27083 12.935 5.20464 12.2749 5.20464C11.1336 5.20464 10.1367 5.37809 9.28411 5.72499C8.43157 6.06733 7.72111 6.54888 7.15274 7.16965C6.58437 7.79041 6.1581 8.51845 5.87392 9.35375C5.59432 10.1845 5.45223 11.0905 5.44764 12.0719C5.45223 13.1537 5.60348 14.1122 5.90142 14.9475C6.20394 15.7782 6.64855 16.4766 7.23525 17.0426C7.82195 17.6086 8.54616 18.0377 9.40787 18.3298C10.2696 18.6219 11.2596 18.768 12.378 18.768C12.9052 18.768 13.4208 18.7292 13.925 18.6516C14.4292 18.5785 14.8853 18.4873 15.2932 18.3777C15.7012 18.2727 16.0289 18.17 16.2764 18.0696L16.9571 20.0552C16.6683 20.2195 16.2764 20.3724 15.7814 20.5139C15.2909 20.6599 14.7363 20.7763 14.1175 20.8631C13.5033 20.9544 12.8708 21 12.2199 21ZM11.9036 14.8106C12.4628 14.8106 12.9075 14.7033 13.2375 14.4888C13.5721 14.2742 13.8104 13.957 13.9525 13.5371C14.0992 13.1126 14.1679 12.59 14.1588 11.9692C14.1542 11.4215 14.0831 10.9582 13.9456 10.5793C13.8127 10.1959 13.5812 9.90605 13.2512 9.70978C12.9258 9.50894 12.472 9.40852 11.8899 9.40852C11.3811 9.40852 10.948 9.51579 10.5904 9.73032C10.2375 9.94485 9.96707 10.2461 9.77914 10.6341C9.5958 11.0175 9.50184 11.4694 9.49725 11.9897C9.50184 12.4736 9.57976 12.9323 9.73102 13.3659C9.88228 13.795 10.1321 14.1442 10.4804 14.4135C10.8288 14.6782 11.3032 14.8106 11.9036 14.8106Z" fill="currentColor"/>
</svg>
