<svg viewBox="0 0 176 32" fill="none" xmlns="http://www.w3.org/2000/svg">
<path fill-rule="evenodd" clip-rule="evenodd" d="M4.64632 14.7919C4.67584 15.1316 4.71763 15.4697 4.77143 15.8056L3.50805 15.819C3.31834 15.819 3.12863 16.0115 3.12863 16.2041C3.14212 16.43 3.16064 16.656 3.18419 16.8815L6.54346 16.846C7.49893 16.846 8.08889 17.6093 8.18269 18.3712L8.18458 18.3864L8.1857 18.4017C8.24405 19.1719 8.41644 19.9045 8.79702 20.5668L8.80725 20.5846L8.81643 20.6031C9.19848 21.3789 9.80475 22.001 10.5425 22.4619C11.2602 22.9102 12.1045 23.1438 12.9723 23.2026C13.8068 23.2591 14.6434 23.0904 15.4297 22.6912L15.4463 22.6828L15.4634 22.6754C15.7924 22.5322 16.0938 22.3465 16.372 22.1196C16.2576 22.1199 16.143 22.1167 16.0286 22.1099C15.1522 22.0576 14.2759 21.8346 13.5023 21.441L14.511 19.6064C14.6375 19.478 14.5742 19.2212 14.3845 19.0929C13.6257 18.6435 12.9933 17.9374 12.4874 17.167C11.9184 16.2683 11.6654 15.3055 11.5389 14.2141C11.4125 13.1229 11.6022 12.0958 12.0448 11.1329C12.4874 10.17 13.1198 9.33549 13.9419 8.69357C14.7639 8.05158 15.7124 7.60223 16.7242 7.40966C17.7449 7.28778 18.7086 7.33947 19.6695 7.61979L20.0915 7.06788L20.1015 7.05606C20.6488 6.4078 21.675 6.12236 22.4468 6.79322C24.2247 8.33076 25.6112 10.2064 26.5359 12.352L26.5387 12.3584L26.5413 12.3649C27.4632 14.6378 27.8601 17.1148 27.6618 19.5313L27.6611 19.5392L27.6603 19.547C27.473 21.3059 26.9861 23.0341 26.2206 24.6117C26.5553 24.2264 26.8682 23.8203 27.1579 23.3938C28.4226 21.5322 29.1814 19.3496 29.4344 17.1028C29.6161 14.95 29.3334 12.7971 28.5307 10.7572L30.13 10.2984C30.3197 10.2984 30.4462 10.0416 30.383 9.84906C29.8138 7.92322 28.7388 6.06161 27.3477 4.58517C25.83 2.98033 23.9962 1.82486 21.9094 1.11873C19.8859 0.412603 17.6727 0.220022 15.5228 0.605182C13.3727 0.990339 11.3492 1.88905 9.64189 3.23711C7.93457 4.58517 6.6066 6.38258 5.72132 8.37258C4.83602 10.3625 4.45662 12.6093 4.64632 14.7919ZM22.6312 27.5097C23.1754 26.9573 23.672 26.3579 24.1106 25.7218C25.3723 23.8921 26.1589 21.6883 26.4021 19.4168C26.5814 17.2161 26.2202 14.9481 25.3745 12.8602C24.5287 10.9004 23.2607 9.1836 21.626 7.76991L21.6245 7.76863C21.5526 7.70612 21.4721 7.68507 21.3799 7.6993C21.2823 7.7143 21.1666 7.77197 21.0701 7.88184L20.8862 8.12248C21.1605 8.27366 21.4213 8.44603 21.6667 8.63789L20.3918 10.2341C20.2653 10.4268 20.2653 10.6835 20.455 10.8119C21.1506 11.4538 21.7197 12.2242 22.0991 13.1229C22.5418 14.1499 22.7315 15.2412 22.605 16.3325C22.5418 17.4238 22.1623 18.4509 21.53 19.3496C20.8976 20.2483 20.0756 21.0186 19.1271 21.468C18.886 21.5822 18.6368 21.6839 18.3815 21.7711C18.3795 21.7738 18.3776 21.7764 18.3757 21.7791C17.7587 22.6808 16.9836 23.4064 15.9788 23.8479C14.9993 24.3415 13.9447 24.5551 12.8881 24.4837C11.8589 24.414 10.8061 24.1341 9.87971 23.5553C8.9788 22.9925 8.19789 22.2085 7.69437 21.1958C7.20052 20.3286 6.99518 19.4054 6.92613 18.5184C6.90872 18.3973 6.85649 18.2963 6.7919 18.2308C6.73181 18.1698 6.65424 18.1305 6.54609 18.1299L3.37327 18.1634C3.6498 19.6092 4.13736 21.0171 4.83598 22.3025C5.91097 24.2283 7.49186 25.8973 9.38887 27.117C11.2859 28.3367 13.4992 28.9786 15.7124 29.107C17.9256 29.2354 20.1388 28.786 22.1623 27.7589C22.3206 27.6786 22.4769 27.5955 22.6312 27.5097Z" fill="white" fill-opacity="0.24"/>
<path fill-rule="evenodd" clip-rule="evenodd" d="M9.89484 23.5866C10.1478 23.7792 10.4007 23.9075 10.7169 24.036L10.7382 23.996C10.4434 23.8743 10.1558 23.7282 9.8795 23.5555C9.59251 23.3763 9.31763 23.1744 9.06006 22.95C9.32296 23.1833 9.60196 23.3955 9.89484 23.5866ZM8.50233 22.3959C8.18858 22.0394 7.91475 21.6396 7.69424 21.196C7.20032 20.3289 6.99503 19.4056 6.92599 18.5186C6.90858 18.3975 6.85635 18.2966 6.79176 18.231C6.73166 18.17 6.6541 18.1308 6.54594 18.1302L3.24634 18.165C3.24926 18.1748 3.2522 18.1846 3.25515 18.1943H6.48014C6.66984 18.1943 6.85955 18.3869 6.85955 18.5795C6.92278 19.4782 7.23898 20.4411 7.68163 21.2756C7.92274 21.6836 8.19789 22.057 8.50233 22.3959ZM26.2196 11.6655L28.2962 11.0689C28.4859 11.0689 28.6123 10.8121 28.5492 10.6195C27.98 8.69374 26.905 6.83212 25.5138 5.35568C23.9962 3.75084 22.1624 2.59537 20.0756 1.88924C18.0521 1.18311 15.8389 0.99053 13.6889 1.37569C11.5389 1.76085 9.51538 2.65956 7.80807 4.00762C6.10073 5.35568 4.77279 7.15312 3.8875 9.14309C3.00222 11.1331 2.68604 13.3798 2.81251 15.5624C2.84369 16.0055 2.89024 16.4487 2.95975 16.8842L6.54331 16.8463C7.49873 16.8463 8.08875 17.6096 8.18255 18.3715L8.18437 18.3867L8.18556 18.4019C8.24391 19.1722 8.41624 19.9047 8.79688 20.567L8.80711 20.5849L8.81622 20.6034C9.19834 21.3792 9.80462 22.0013 10.5424 22.4621C10.7963 22.6208 11.0661 22.7525 11.3473 22.8592L12.6771 20.3769C12.8036 20.2485 12.7404 19.9917 12.5507 19.8634C11.7919 19.414 11.1595 18.7079 10.6536 17.9375C10.0845 17.0388 9.76833 16.0118 9.70515 14.9847C9.57864 13.9576 9.76833 12.8663 10.211 11.9034C10.6536 10.9405 11.286 10.106 12.1081 9.46402C12.9301 8.8221 13.8786 8.37274 14.8904 8.18018C15.9654 8.05182 16.9771 8.11596 17.9889 8.43696C18.2609 8.5198 18.533 8.6264 18.8 8.75681L20.0914 7.06812L20.1013 7.0563C20.6487 6.40804 21.6749 6.1226 22.4467 6.79346C24.0322 8.16467 25.3065 9.80478 26.2196 11.6655ZM22.4417 8.53146C23.4683 9.56528 24.3199 10.7351 24.9792 12.0219L24.9448 12.0318C24.2966 10.7159 23.4519 9.55959 22.4417 8.53146Z" fill="white"/>
<path d="M21.0873 7.85909C21.2138 7.66652 21.5096 7.61226 21.636 7.74062C23.2802 9.08867 24.5793 10.8676 25.4014 12.8576C26.2867 14.976 26.6182 17.2859 26.4285 19.5327C26.1755 21.7794 25.3671 23.9476 24.1024 25.8092C22.8377 27.6707 21.0873 29.1071 19.0638 30.1341C17.0403 31.1613 14.8271 31.6106 12.6139 31.4822C10.4007 31.3538 8.18738 30.7119 6.29036 29.4922C4.39331 28.2726 2.81244 26.6036 1.73744 24.6777C0.725683 22.8161 0.156568 20.6978 0.030098 18.5794C0.030098 18.3868 0.219803 18.1942 0.409508 18.1942L6.48007 18.13C6.69447 18.13 6.85009 18.1837 6.92419 18.5097C6.98743 19.4726 7.23674 20.3067 7.69423 21.1773C8.20006 22.1403 8.94623 22.9445 9.89477 23.5222C10.7801 24.1 11.855 24.4209 12.93 24.4852C14.005 24.5494 15.0674 24.2462 16.0159 23.7969C16.9644 23.3475 17.7732 22.5799 18.4056 21.6812C19.0379 20.7825 19.4432 19.7991 19.5065 18.7078C19.6329 17.6165 19.4432 16.5252 19.0006 15.4981C18.6212 14.5994 18.052 13.8291 17.3565 13.1872C17.1667 13.0587 17.1667 12.802 17.2933 12.6094L21.0873 7.85909Z" fill="white"/>
<path d="M167.372 20.3388C167.357 20.4151 167.349 20.522 167.349 20.6593C167.349 21.4376 167.685 22.0403 168.356 22.4676C169.043 22.8949 169.974 23.1085 171.149 23.1085C172.202 23.1085 173.018 22.9025 173.598 22.4905C174.178 22.0632 174.468 21.5062 174.468 20.8195C174.468 20.2854 174.3 19.8658 173.964 19.5606C173.644 19.2554 173.24 19.0265 172.751 18.8739C172.278 18.706 171.637 18.5458 170.828 18.3932C169.898 18.2101 169.15 18.0269 168.585 17.8438C168.021 17.6454 167.54 17.3402 167.143 16.9282C166.746 16.5162 166.548 15.9439 166.548 15.2115C166.548 14.2653 166.93 13.4947 167.693 12.8996C168.456 12.3044 169.585 12.0068 171.08 12.0068C172.057 12.0068 172.866 12.1671 173.507 12.4875C174.148 12.808 174.613 13.2124 174.903 13.7007C175.208 14.1738 175.361 14.6621 175.361 15.1657L175.338 15.4861H174.193V15.1886C174.193 14.7002 173.972 14.2272 173.53 13.7694C173.102 13.2963 172.217 13.0598 170.874 13.0598C169.577 13.0598 168.723 13.2811 168.311 13.7236C167.914 14.1661 167.715 14.6468 167.715 15.1657C167.715 15.6082 167.868 15.9668 168.173 16.2415C168.478 16.5162 168.86 16.7298 169.318 16.8824C169.776 17.0198 170.409 17.1724 171.218 17.3402C172.148 17.5386 172.911 17.737 173.507 17.9354C174.102 18.1338 174.605 18.4466 175.017 18.8739C175.429 19.3012 175.635 19.8734 175.635 20.5906C175.635 21.842 175.2 22.7499 174.331 23.3146C173.476 23.8792 172.316 24.1615 170.851 24.1615C169.737 24.1615 168.829 23.986 168.127 23.635C167.441 23.284 166.945 22.8568 166.64 22.3532C166.35 21.8496 166.205 21.3689 166.205 20.9111C166.205 20.728 166.205 20.5906 166.205 20.4991C166.22 20.4075 166.228 20.3541 166.228 20.3388H167.372Z" fill="white"/>
<path d="M163.992 19.6064C163.992 20.5525 163.786 21.3689 163.374 22.0556C162.977 22.7423 162.435 23.2688 161.749 23.635C161.062 23.986 160.291 24.1615 159.437 24.1615C158.475 24.1615 157.621 23.9326 156.873 23.4748C156.141 23.0017 155.568 22.3226 155.156 21.4376C154.744 20.5525 154.538 19.4919 154.538 18.2558V17.9125C154.538 16.6764 154.737 15.6158 155.133 14.7308C155.545 13.8457 156.118 13.1742 156.85 12.7164C157.598 12.2434 158.453 12.0068 159.414 12.0068C160.284 12.0068 161.062 12.1976 161.749 12.5791C162.451 12.9453 163 13.4871 163.397 14.2043C163.794 14.9063 163.992 15.7532 163.992 16.7451V18.2101H155.706V18.3932C155.706 19.9192 156.049 21.0866 156.736 21.8954C157.438 22.7042 158.338 23.1085 159.437 23.1085C160.413 23.1085 161.222 22.811 161.863 22.2158C162.519 21.6207 162.847 20.7509 162.847 19.6064H163.992ZM159.414 13.0598C158.391 13.0598 157.545 13.4108 156.873 14.1127C156.202 14.8147 155.82 15.8295 155.729 17.1571H162.847V16.7451C162.847 15.5548 162.519 14.6468 161.863 14.0212C161.222 13.3802 160.406 13.0598 159.414 13.0598Z" fill="white"/>
<path d="M151.946 16.0584C151.946 15.2954 151.725 14.6087 151.283 13.9983C150.84 13.3726 150.108 13.0598 149.085 13.0598C148.383 13.0598 147.811 13.2505 147.368 13.632C146.926 13.9983 146.605 14.4484 146.407 14.9826C146.224 15.5167 146.132 16.0279 146.132 16.5162V23.9326H144.965V12.2357H145.743L145.995 13.9754C145.995 13.9143 146.109 13.716 146.338 13.3802C146.582 13.0445 146.949 12.7317 147.437 12.4417C147.941 12.1518 148.566 12.0068 149.314 12.0068C150.52 12.0068 151.443 12.3807 152.084 13.1285C152.74 13.8609 153.068 14.7765 153.068 15.8753C153.068 16.0279 153.06 16.1499 153.045 16.2415C153.03 16.3331 153.022 16.3941 153.022 16.4246H151.946V16.0584Z" fill="white"/>
<path d="M140.823 22.3532C140.823 22.8568 141.029 23.1085 141.441 23.1085C141.792 23.1085 142.173 22.9865 142.585 22.7423V23.7266C142.158 24.0165 141.67 24.1615 141.12 24.1615C140.571 24.1615 140.189 23.9631 139.976 23.5663C139.762 23.1543 139.655 22.5973 139.655 21.8954C139.182 22.6736 138.587 23.2459 137.87 23.6121C137.168 23.9784 136.336 24.1615 135.375 24.1615C134.291 24.1615 133.406 23.9173 132.72 23.429C132.033 22.9254 131.69 22.0785 131.69 20.8882C131.69 19.8047 132.01 18.996 132.651 18.4619C133.307 17.9125 134.185 17.5615 135.283 17.4089C136.397 17.241 137.855 17.1571 139.655 17.1571V15.6921C139.655 14.7155 139.419 14.0364 138.946 13.6549C138.488 13.2582 137.71 13.0598 136.611 13.0598C135.604 13.0598 134.795 13.2582 134.185 13.6549C133.574 14.0364 133.269 14.6316 133.269 15.4404V15.8066H132.147C132.117 15.5624 132.102 15.3641 132.102 15.2115C132.102 14.2195 132.521 13.4413 133.36 12.8767C134.215 12.2968 135.299 12.0068 136.611 12.0068C138.03 12.0068 139.083 12.2891 139.77 12.8538C140.472 13.4184 140.823 14.2882 140.823 15.4632V22.3532ZM139.655 18.2101C138.038 18.2101 136.763 18.2635 135.833 18.3703C134.917 18.4771 134.192 18.7289 133.658 19.1257C133.124 19.5072 132.857 20.1023 132.857 20.9111C132.857 21.6741 133.071 22.2311 133.498 22.5821C133.94 22.9331 134.642 23.1085 135.604 23.1085C136.29 23.1085 136.939 22.9559 137.549 22.6507C138.175 22.3455 138.679 21.8877 139.06 21.2773C139.457 20.6517 139.655 19.8887 139.655 18.9883V18.2101Z" fill="white"/>
<path d="M127.895 16.7455C127.895 15.5095 127.605 14.5862 127.025 13.9758C126.46 13.3654 125.652 13.0602 124.599 13.0602C123.927 13.0602 123.317 13.2205 122.768 13.5409C122.218 13.8614 121.783 14.3039 121.463 14.8685C121.158 15.4332 121.005 16.0588 121.005 16.7455V23.933H119.838V7.45215H121.005V13.8843C121.386 13.2891 121.921 12.8313 122.607 12.5109C123.294 12.1751 123.996 12.0073 124.713 12.0073C125.995 12.0073 127.04 12.3812 127.849 13.1289C128.658 13.8614 129.062 14.9525 129.062 16.4022V23.933H127.895V16.7455Z" fill="white"/>
<path d="M108.823 20.3388C108.808 20.4151 108.8 20.522 108.8 20.6593C108.8 21.4376 109.136 22.0403 109.808 22.4676C110.494 22.8949 111.425 23.1085 112.6 23.1085C113.653 23.1085 114.47 22.9025 115.049 22.4905C115.629 22.0632 115.919 21.5062 115.919 20.8195C115.919 20.2854 115.751 19.8658 115.416 19.5606C115.095 19.2554 114.691 19.0265 114.203 18.8739C113.729 18.706 113.089 18.5458 112.28 18.3932C111.349 18.2101 110.601 18.0269 110.037 17.8438C109.472 17.6454 108.991 17.3402 108.594 16.9282C108.198 16.5162 107.999 15.9439 107.999 15.2115C107.999 14.2653 108.381 13.4947 109.144 12.8996C109.907 12.3044 111.036 12.0068 112.532 12.0068C113.508 12.0068 114.317 12.1671 114.958 12.4875C115.599 12.808 116.064 13.2124 116.354 13.7007C116.659 14.1738 116.812 14.6621 116.812 15.1657L116.789 15.4861H115.645V15.1886C115.645 14.7002 115.423 14.2272 114.981 13.7694C114.554 13.2963 113.668 13.0598 112.326 13.0598C111.028 13.0598 110.174 13.2811 109.762 13.7236C109.365 14.1661 109.167 14.6468 109.167 15.1657C109.167 15.6082 109.319 15.9668 109.625 16.2415C109.93 16.5162 110.311 16.7298 110.769 16.8824C111.227 17.0198 111.86 17.1724 112.669 17.3402C113.6 17.5386 114.363 17.737 114.958 17.9354C115.553 18.1338 116.057 18.4466 116.469 18.8739C116.881 19.3012 117.087 19.8734 117.087 20.5906C117.087 21.842 116.652 22.7499 115.782 23.3146C114.927 23.8792 113.768 24.1615 112.303 24.1615C111.189 24.1615 110.281 23.986 109.579 23.635C108.892 23.284 108.396 22.8568 108.091 22.3532C107.801 21.8496 107.656 21.3689 107.656 20.9111C107.656 20.728 107.656 20.5906 107.656 20.4991C107.671 20.4075 107.679 20.3541 107.679 20.3388H108.823Z" fill="white"/>
<path d="M106.535 19.5606C106.535 20.583 106.291 21.4452 105.802 22.1472C105.314 22.8339 104.665 23.3451 103.857 23.6808C103.063 24.0013 102.193 24.1615 101.247 24.1615H100.881C99.7974 24.1615 98.8207 23.9326 97.9509 23.4748C97.0811 23.017 96.3944 22.3608 95.8908 21.5062C95.4025 20.6364 95.1583 19.6064 95.1583 18.4161V17.7523C95.1583 16.5772 95.4101 15.5548 95.9137 14.685C96.4173 13.8152 97.0963 13.1513 97.9509 12.6935C98.8207 12.2357 99.7974 12.0068 100.881 12.0068H101.247C102.193 12.0068 103.071 12.2052 103.879 12.602C104.688 12.9835 105.337 13.5481 105.825 14.2958C106.313 15.0283 106.558 15.8982 106.558 16.9053V18.645H98.546V19.1943C98.546 19.9573 98.7673 20.5983 99.2098 21.1171C99.6676 21.6207 100.286 21.8725 101.064 21.8725C101.766 21.8725 102.315 21.6817 102.712 21.3002C103.124 20.9035 103.33 20.3236 103.33 19.5606H106.535ZM100.904 14.2958C100.232 14.2958 99.6829 14.5324 99.2556 15.0054C98.8436 15.4785 98.6071 16.0813 98.546 16.8138H103.17C103.17 16.0355 102.987 15.4251 102.62 14.9826C102.269 14.5247 101.697 14.2958 100.904 14.2958Z" fill="white"/>
<path d="M91.9707 16.2415C91.9707 15.7684 91.841 15.3641 91.5816 15.0283C91.3222 14.6774 90.9102 14.5019 90.3455 14.5019C89.8114 14.5019 89.3994 14.7155 89.1095 15.1428C88.8348 15.5548 88.6974 16.0736 88.6974 16.6993V23.9326H85.4013V12.2357H87.8734L88.2854 13.9525C88.3465 13.7846 88.4991 13.5481 88.7432 13.2429C89.0026 12.9377 89.3689 12.6554 89.842 12.396C90.3303 12.1365 90.9025 12.0068 91.5587 12.0068C92.6117 12.0068 93.4204 12.3349 93.9851 12.9911C94.5649 13.6473 94.8549 14.5171 94.8549 15.6006C94.8549 15.8295 94.8396 16.0584 94.8091 16.2873C94.7938 16.5162 94.7786 16.6764 94.7633 16.768H91.9707V16.2415Z" fill="white"/>
<path d="M82.945 21.1864C82.945 21.4153 83.0137 21.5908 83.151 21.7128C83.2883 21.8197 83.441 21.8731 83.6088 21.8731C83.7614 21.8731 83.9293 21.8425 84.1124 21.7815C84.2955 21.7205 84.4405 21.6671 84.5473 21.6213V23.6814C83.9827 24.0019 83.3112 24.1621 82.533 24.1621C81.007 24.1621 80.1219 23.6051 79.8777 22.4911C78.9163 23.6051 77.7413 24.1621 76.3526 24.1621C75.1624 24.1621 74.1781 23.8416 73.3998 23.2007C72.6368 22.5598 72.2553 21.6289 72.2553 20.4081V12.2363H75.5973V19.6756C75.5973 20.2708 75.7651 20.7667 76.1009 21.1635C76.4518 21.545 76.8944 21.7357 77.4285 21.7357C78.0236 21.7357 78.5348 21.5145 78.9621 21.0719C79.3894 20.6141 79.603 20.0648 79.603 19.4238V12.2363H82.945V21.1864Z" fill="white"/>
<path d="M63.0906 19.1943C63.0906 19.9573 63.289 20.5983 63.6857 21.1171C64.0825 21.6207 64.6166 21.8725 65.288 21.8725C65.99 21.8725 66.5393 21.6588 66.9361 21.2316C67.3481 20.789 67.5541 20.1405 67.5541 19.2859H70.713C70.713 20.3694 70.4764 21.2773 70.0034 22.0098C69.5456 22.7423 68.9352 23.284 68.1722 23.635C67.4092 23.986 66.5699 24.1615 65.6543 24.1615H65.288C63.5789 24.1615 62.2207 23.6579 61.2136 22.6507C60.2064 21.6283 59.7028 20.2168 59.7028 18.4161V17.7523C59.7028 16.562 59.9394 15.5395 60.4124 14.685C60.9007 13.8152 61.5646 13.1513 62.4039 12.6935C63.2432 12.2357 64.2046 12.0068 65.288 12.0068H65.6543C66.5546 12.0068 67.3863 12.2052 68.1493 12.602C68.9276 12.9835 69.5456 13.5481 70.0034 14.2958C70.4764 15.0283 70.713 15.8982 70.713 16.9053H67.3939C67.3939 16.1118 67.2184 15.4785 66.8674 15.0054C66.5165 14.5324 65.9976 14.2958 65.3109 14.2958C64.6242 14.2958 64.0825 14.5705 63.6857 15.1199C63.289 15.654 63.0906 16.3331 63.0906 17.1571V19.1943Z" fill="white"/>
<path d="M58.6273 19.5606C58.6273 20.583 58.3832 21.4452 57.8948 22.1472C57.4065 22.8339 56.758 23.3451 55.9492 23.6808C55.1557 24.0013 54.2858 24.1615 53.3397 24.1615H52.9735C51.89 24.1615 50.9134 23.9326 50.0435 23.4748C49.1737 23.017 48.487 22.3608 47.9834 21.5062C47.4951 20.6364 47.2509 19.6064 47.2509 18.4161V17.7523C47.2509 16.5772 47.5027 15.5548 48.0063 14.685C48.5099 13.8152 49.189 13.1513 50.0435 12.6935C50.9134 12.2357 51.89 12.0068 52.9735 12.0068H53.3397C54.2858 12.0068 55.1633 12.2052 55.9721 12.602C56.7809 12.9835 57.4294 13.5481 57.9177 14.2958C58.4061 15.0283 58.6502 15.8982 58.6502 16.9053V18.645H50.6387V19.1943C50.6387 19.9573 50.86 20.5983 51.3025 21.1171C51.7603 21.6207 52.3783 21.8725 53.1566 21.8725C53.8586 21.8725 54.4079 21.6817 54.8047 21.3002C55.2167 20.9035 55.4227 20.3236 55.4227 19.5606H58.6273ZM52.9964 14.2958C52.3249 14.2958 51.7756 14.5324 51.3483 15.0054C50.9363 15.4785 50.6997 16.0813 50.6387 16.8138H55.2625C55.2625 16.0355 55.0794 15.4251 54.7131 14.9826C54.3621 14.5247 53.7899 14.2958 52.9964 14.2958Z" fill="white"/>
<path d="M38.4597 20.3617C38.4597 20.8958 38.6962 21.285 39.1693 21.5291C39.6423 21.758 40.2298 21.8725 40.9318 21.8725C41.5422 21.8725 42.0839 21.7809 42.557 21.5978C43.0453 21.4147 43.2895 21.1247 43.2895 20.728C43.2895 20.3007 43.0682 19.9955 42.6257 19.8124C42.1831 19.6292 41.4964 19.469 40.5656 19.3317C39.5889 19.1638 38.7878 18.9807 38.1621 18.7823C37.5364 18.5839 36.9947 18.2406 36.5369 17.7523C36.0944 17.2639 35.8731 16.5849 35.8731 15.715C35.8731 14.9215 36.102 14.2501 36.5598 13.7007C37.0329 13.1361 37.6509 12.7164 38.4139 12.4417C39.1922 12.1518 40.0391 12.0068 40.9547 12.0068H41.4125C42.2213 12.0068 42.9843 12.1442 43.7015 12.4189C44.434 12.6783 45.0215 13.0522 45.4641 13.5405C45.9066 14.0135 46.1279 14.5553 46.1279 15.1657C46.1279 15.2878 46.1202 15.4022 46.105 15.509C46.0897 15.6006 46.0821 15.654 46.0821 15.6693H43.1522C43.1522 14.7537 42.4502 14.2958 41.0463 14.2958C40.4053 14.2958 39.8865 14.3874 39.4897 14.5705C39.1082 14.7537 38.9175 15.0054 38.9175 15.3259C38.9175 15.7074 39.1235 15.9745 39.5355 16.1271C39.9628 16.2797 40.6266 16.4246 41.527 16.562C42.5494 16.7298 43.3734 16.913 43.9991 17.1113C44.64 17.2945 45.197 17.6378 45.6701 18.1414C46.1431 18.6297 46.3797 19.324 46.3797 20.2244C46.3797 21.6131 45.8913 22.6202 44.9147 23.2459C43.938 23.8563 42.6943 24.1615 41.1836 24.1615H40.4282C39.4821 24.1615 38.6352 24.0165 37.8874 23.7266C37.1397 23.4366 36.5522 23.0246 36.1249 22.4905C35.7129 21.9564 35.5069 21.346 35.5069 20.6593L35.5297 20.2015H38.4597V20.3617Z" fill="white"/>
</svg>
