<svg viewBox="0 0 224 40" fill="none" xmlns="http://www.w3.org/2000/svg">
<path fill-rule="evenodd" clip-rule="evenodd" d="M5.90539 18.4902C5.94292 18.9148 5.99603 19.3375 6.0644 19.7573L4.45867 19.774C4.21756 19.774 3.97644 20.0147 3.97644 20.2554C3.99359 20.5378 4.01713 20.8202 4.04706 21.1022L8.31663 21.0578C9.53103 21.0578 10.2809 22.012 10.4001 22.9643L10.4025 22.9834L10.4039 23.0024C10.4781 23.9652 10.6972 24.8809 11.1809 25.7088L11.1939 25.7311L11.2055 25.7542C11.6911 26.724 12.4617 27.5016 13.3994 28.0777C14.3115 28.6381 15.3846 28.9301 16.4875 29.0035C17.5482 29.0742 18.6115 28.8633 19.6109 28.3643L19.632 28.3538L19.6538 28.3445C20.0719 28.1656 20.455 27.9334 20.8085 27.6498C20.6631 27.6502 20.5175 27.6462 20.3721 27.6377C19.2582 27.5722 18.1444 27.2936 17.1612 26.8016L18.4432 24.5083C18.604 24.3478 18.5236 24.0268 18.2825 23.8664C17.318 23.3047 16.5143 22.422 15.8713 21.4591C15.148 20.3357 14.8265 19.1322 14.6658 17.768C14.5051 16.4039 14.7462 15.1201 15.3087 13.9164C15.8713 12.7128 16.675 11.6697 17.7199 10.8673C18.7647 10.0648 19.9703 9.50309 21.2562 9.26238C22.5535 9.11003 23.7783 9.17465 24.9996 9.52505L25.536 8.83515L25.5487 8.82038C26.2443 8.01006 27.5486 7.65325 28.5295 8.49183C30.7891 10.4138 32.5514 12.7583 33.7267 15.4403L33.7302 15.4483L33.7336 15.4564C34.9053 18.2976 35.4098 21.3938 35.1577 24.4144L35.1569 24.4242L35.1558 24.434C34.9177 26.6327 34.299 28.793 33.326 30.765C33.7513 30.2834 34.149 29.7756 34.5173 29.2426C36.1247 26.9155 37.0891 24.1873 37.4106 21.3788C37.6417 18.6878 37.2823 15.9967 36.262 13.4468L38.2948 12.8733C38.5359 12.8733 38.6966 12.5523 38.6163 12.3116C37.8929 9.90434 36.5266 7.57732 34.7584 5.73177C32.8296 3.72572 30.4988 2.28138 27.8466 1.39872C25.2747 0.516059 22.4617 0.275333 19.7292 0.756783C16.9965 1.23823 14.4247 2.36162 12.2547 4.04669C10.0847 5.73177 8.39689 7.97853 7.2717 10.466C6.14651 12.9535 5.66429 15.7619 5.90539 18.4902ZM28.7639 34.3875C29.4556 33.6969 30.0867 32.9476 30.6442 32.1525C32.2477 29.8654 33.2475 27.1107 33.5566 24.2714C33.7845 21.5204 33.3255 18.6854 32.2506 16.0755C31.1756 13.6258 29.564 11.4798 27.4862 9.71269L27.4844 9.71109C27.393 9.63296 27.2906 9.60665 27.1735 9.62442C27.0494 9.64318 26.9025 9.71527 26.7798 9.8526L26.546 10.1534C26.8947 10.3424 27.2262 10.5578 27.5381 10.7977L25.9176 12.793C25.7569 13.0338 25.7569 13.3546 25.998 13.5152C26.8821 14.3176 27.6054 15.2805 28.0877 16.4039C28.6502 17.6877 28.8913 19.0518 28.7306 20.416C28.6502 21.7801 28.168 23.0639 27.3643 24.1873C26.5606 25.3106 25.5158 26.2736 24.3102 26.8353C24.0039 26.978 23.6871 27.1052 23.3626 27.2142C23.3601 27.2176 23.3577 27.2209 23.3552 27.2242C22.5711 28.3513 21.5858 29.2583 20.3088 29.8102C19.0638 30.4272 17.7235 30.6942 16.3806 30.6049C15.0725 30.5178 13.7344 30.1679 12.5569 29.4444C11.4119 28.741 10.4194 27.7609 9.77942 26.495C9.15175 25.4111 8.89076 24.257 8.803 23.1482C8.78087 22.9969 8.71449 22.8707 8.6324 22.7888C8.55602 22.7125 8.45744 22.6634 8.31997 22.6627L4.28737 22.7046C4.63884 24.5118 5.25852 26.2716 6.14645 27.8784C7.51275 30.2857 9.52203 32.372 11.9331 33.8965C14.3443 35.4211 17.1572 36.2235 19.9702 36.3841C22.7831 36.5445 25.5961 35.9828 28.168 34.6989C28.3691 34.5986 28.5678 34.4947 28.7639 34.3875Z" fill="#22242D" fill-opacity="0.24"/>
<path fill-rule="evenodd" clip-rule="evenodd" d="M12.5762 29.4833C12.8977 29.724 13.2192 29.8844 13.621 30.045L13.6481 29.995C13.2734 29.8428 12.9079 29.6602 12.5567 29.4444C12.1919 29.2203 11.8425 28.9681 11.5152 28.6875C11.8493 28.9791 12.2039 29.2443 12.5762 29.4833ZM10.8063 27.9948C10.4075 27.5492 10.0595 27.0495 9.77924 26.495C9.15147 25.4111 8.89056 24.257 8.80281 23.1482C8.78067 22.9969 8.71429 22.8707 8.6322 22.7888C8.55582 22.7125 8.45724 22.6634 8.31977 22.6627L4.12603 22.7063C4.12974 22.7185 4.13347 22.7307 4.13723 22.7429H8.23614C8.47724 22.7429 8.71836 22.9836 8.71836 23.2243C8.79873 24.3478 9.20062 25.5513 9.76321 26.5946C10.0697 27.1045 10.4194 27.5713 10.8063 27.9948ZM33.3247 14.5819L35.964 13.8361C36.2051 13.8361 36.3658 13.5152 36.2855 13.2744C35.5621 10.8672 34.1958 8.54015 32.4277 6.6946C30.4988 4.68855 28.168 3.24421 25.5158 2.36155C22.9439 1.47889 20.131 1.23816 17.3984 1.71961C14.6657 2.20107 12.0939 3.32445 9.92391 5.00952C7.75391 6.6946 6.06613 8.9414 4.94094 11.4289C3.81575 13.9163 3.4139 16.7248 3.57464 19.453C3.61427 20.0069 3.67344 20.5609 3.76178 21.1052L8.31643 21.0578C9.53075 21.0578 10.2807 22.012 10.3999 22.9643L10.4022 22.9834L10.4037 23.0024C10.4779 23.9652 10.6969 24.8809 11.1807 25.7088L11.1937 25.7311L11.2053 25.7542C11.6909 26.724 12.4615 27.5016 13.3992 28.0777C13.7219 28.276 14.0649 28.4407 14.4222 28.574L16.1124 25.4712C16.2732 25.3106 16.1928 24.9897 15.9517 24.8292C14.9872 24.2675 14.1835 23.3849 13.5406 22.4219C12.8173 21.2986 12.4154 20.0147 12.3351 18.7308C12.1743 17.447 12.4154 16.0829 12.978 14.8793C13.5406 13.6756 14.3443 12.6325 15.3891 11.83C16.4339 11.0276 17.6395 10.4659 18.9255 10.2252C20.2918 10.0648 21.5776 10.145 22.8636 10.5462C23.2093 10.6498 23.5551 10.783 23.8945 10.946L25.5358 8.83515L25.5485 8.82037C26.2441 8.01006 27.5484 7.65325 28.5293 8.49182C30.5445 10.2058 32.1641 12.256 33.3247 14.5819ZM28.523 10.6643C29.8278 11.9566 30.9102 13.4189 31.7482 15.0274L31.7044 15.0397C30.8806 13.3948 29.807 11.9495 28.523 10.6643Z" fill="#22242D"/>
<path d="M26.8017 9.82411C26.9624 9.5834 27.3384 9.51557 27.4991 9.67602C29.5887 11.3611 31.2399 13.5847 32.2848 16.0722C33.41 18.7202 33.8313 21.6077 33.5902 24.4161C33.2687 27.2246 32.2412 29.9347 30.6338 32.2617C29.0263 34.5886 26.8017 36.3841 24.2298 37.6679C21.658 38.9518 18.845 39.5135 16.0321 39.353C13.2191 39.1926 10.406 38.3902 7.99496 36.8655C5.58385 35.341 3.57458 33.2547 2.20828 30.8474C0.922347 28.5204 0.19901 25.8725 0.038269 23.2245C0.038269 22.9838 0.279381 22.743 0.520493 22.743L8.23608 22.6628C8.50858 22.6628 8.70637 22.7299 8.80055 23.1374C8.88092 24.341 9.1978 25.3836 9.77926 26.4719C10.4222 27.6756 11.3705 28.6809 12.5761 29.403C13.7013 30.1253 15.0676 30.5264 16.4339 30.6067C17.8001 30.687 19.1504 30.308 20.356 29.7463C21.5616 29.1846 22.5895 28.2252 23.3932 27.1018C24.1969 25.9784 24.712 24.7491 24.7924 23.385C24.9531 22.0208 24.712 20.6567 24.1494 19.3729C23.6672 18.2495 22.9439 17.2866 22.0599 16.4842C21.8187 16.3237 21.8187 16.0027 21.9795 15.762L26.8017 9.82411Z" fill="#22242D"/>
<path d="M212.727 25.424C212.708 25.5194 212.698 25.6529 212.698 25.8246C212.698 26.7974 213.125 27.5509 213.978 28.085C214.851 28.6191 216.034 28.8862 217.528 28.8862C218.866 28.8862 219.904 28.6287 220.641 28.1136C221.378 27.5795 221.746 26.8833 221.746 26.0249C221.746 25.3573 221.533 24.8327 221.106 24.4512C220.699 24.0697 220.185 23.7836 219.564 23.5928C218.963 23.383 218.148 23.1827 217.12 22.992C215.937 22.7631 214.987 22.5342 214.269 22.3053C213.552 22.0573 212.941 21.6758 212.436 21.1608C211.932 20.6457 211.68 19.9304 211.68 19.0148C211.68 17.8321 212.165 16.8689 213.135 16.1249C214.104 15.381 215.54 15.009 217.44 15.009C218.682 15.009 219.71 15.2093 220.524 15.6099C221.339 16.0105 221.93 16.516 222.299 17.1264C222.687 17.7177 222.881 18.3281 222.881 18.9576L222.852 19.3582H221.397V18.9862C221.397 18.3758 221.116 17.7845 220.553 17.2122C220.01 16.6209 218.885 16.3252 217.179 16.3252C215.53 16.3252 214.444 16.6018 213.92 17.155C213.416 17.7082 213.164 18.309 213.164 18.9576C213.164 19.5108 213.358 19.959 213.746 20.3024C214.133 20.6457 214.618 20.9128 215.2 21.1035C215.782 21.2752 216.587 21.466 217.615 21.6758C218.798 21.9238 219.768 22.1717 220.524 22.4197C221.281 22.6677 221.921 23.0587 222.444 23.5928C222.968 24.1269 223.23 24.8422 223.23 25.7388C223.23 27.3029 222.677 28.4379 221.572 29.1437C220.485 29.8495 219.011 30.2023 217.149 30.2023C215.734 30.2023 214.58 29.983 213.687 29.5443C212.815 29.1055 212.184 28.5714 211.796 27.942C211.428 27.3125 211.244 26.7116 211.244 26.1394C211.244 25.9105 211.244 25.7388 211.244 25.6243C211.263 25.5099 211.273 25.4431 211.273 25.424H212.727Z" fill="#22242D"/>
<path d="M208.431 24.5084C208.431 25.6911 208.169 26.7116 207.646 27.57C207.141 28.4284 206.453 29.0865 205.58 29.5443C204.707 29.983 203.728 30.2023 202.642 30.2023C201.42 30.2023 200.334 29.9162 199.383 29.344C198.452 28.7526 197.725 27.9038 197.201 26.7974C196.678 25.6911 196.416 24.3654 196.416 22.8203V22.3911C196.416 20.846 196.668 19.5203 197.172 18.4139C197.696 17.3076 198.423 16.4683 199.354 15.896C200.305 15.3047 201.391 15.009 202.613 15.009C203.718 15.009 204.707 15.2475 205.58 15.7243C206.472 16.1822 207.17 16.8593 207.675 17.7558C208.179 18.6333 208.431 19.692 208.431 20.9319V22.7631H197.9V22.992C197.9 24.8995 198.336 26.3587 199.209 27.3697C200.101 28.3807 201.245 28.8862 202.642 28.8862C203.883 28.8862 204.911 28.5142 205.726 27.7703C206.56 27.0263 206.977 25.9391 206.977 24.5084H208.431ZM202.613 16.3252C201.313 16.3252 200.237 16.7639 199.383 17.6414C198.53 18.5189 198.045 19.7873 197.929 21.4469H206.977V20.9319C206.977 19.444 206.56 18.309 205.726 17.5269C204.911 16.7258 203.873 16.3252 202.613 16.3252Z" fill="#22242D"/>
<path d="M193.121 20.0735C193.121 19.1197 192.84 18.2613 192.278 17.4983C191.715 16.7163 190.784 16.3252 189.485 16.3252C188.593 16.3252 187.865 16.5637 187.303 17.0405C186.74 17.4983 186.333 18.061 186.081 18.7287C185.848 19.3963 185.732 20.0353 185.732 20.6457V29.9162H184.248V15.2952H185.237L185.557 17.4697C185.557 17.3934 185.703 17.1454 185.994 16.7258C186.304 16.3061 186.77 15.9151 187.39 15.5527C188.03 15.1902 188.825 15.009 189.776 15.009C191.308 15.009 192.481 15.4764 193.296 16.4111C194.13 17.3267 194.547 18.4712 194.547 19.8446C194.547 20.0353 194.537 20.1879 194.518 20.3024C194.499 20.4168 194.489 20.4931 194.489 20.5313H193.121V20.0735Z" fill="#22242D"/>
<path d="M178.983 27.942C178.983 28.5714 179.245 28.8862 179.769 28.8862C180.215 28.8862 180.7 28.7336 181.224 28.4284V29.6587C180.681 30.0211 180.06 30.2023 179.362 30.2023C178.663 30.2023 178.179 29.9544 177.907 29.4584C177.635 28.9434 177.5 28.2472 177.5 27.3697C176.898 28.3425 176.142 29.0578 175.23 29.5156C174.338 29.9734 173.281 30.2023 172.059 30.2023C170.682 30.2023 169.557 29.8971 168.685 29.2867C167.812 28.6573 167.375 27.5986 167.375 26.1107C167.375 24.7564 167.783 23.7454 168.597 23.0778C169.431 22.3911 170.546 21.9524 171.943 21.7616C173.359 21.5518 175.211 21.4469 177.5 21.4469V19.6157C177.5 18.3949 177.199 17.546 176.598 17.0691C176.016 16.5732 175.027 16.3252 173.63 16.3252C172.35 16.3252 171.322 16.5732 170.546 17.0691C169.771 17.546 169.383 18.29 169.383 19.3009V19.7587H167.957C167.918 19.4535 167.899 19.2056 167.899 19.0148C167.899 17.7749 168.432 16.8021 169.499 16.0963C170.585 15.3715 171.962 15.009 173.63 15.009C175.434 15.009 176.772 15.3619 177.645 16.0677C178.537 16.7735 178.983 17.8608 178.983 19.3295V27.942ZM177.5 22.7631C175.444 22.7631 173.824 22.8298 172.641 22.9634C171.477 23.0969 170.556 23.4116 169.877 23.9076C169.198 24.3844 168.859 25.1284 168.859 26.1394C168.859 27.0931 169.131 27.7894 169.674 28.2281C170.236 28.6668 171.128 28.8862 172.35 28.8862C173.223 28.8862 174.047 28.6954 174.823 28.3139C175.618 27.9324 176.258 27.3602 176.743 26.5972C177.248 25.8151 177.5 24.8613 177.5 23.7359V22.7631Z" fill="#22242D"/>
<path d="M162.552 20.9318C162.552 19.3867 162.184 18.2327 161.447 17.4697C160.729 16.7067 159.701 16.3252 158.363 16.3252C157.51 16.3252 156.734 16.5255 156.036 16.926C155.337 17.3266 154.785 17.8798 154.377 18.5856C153.989 19.2913 153.795 20.0734 153.795 20.9318V29.9162H152.312V9.31506H153.795V17.3552C154.28 16.6113 154.959 16.039 155.832 15.6385C156.705 15.2188 157.597 15.009 158.509 15.009C160.138 15.009 161.466 15.4763 162.494 16.411C163.522 17.3266 164.036 18.6905 164.036 20.5026V29.9162H162.552V20.9318Z" fill="#22242D"/>
<path d="M138.313 25.424C138.293 25.5194 138.284 25.6529 138.284 25.8246C138.284 26.7974 138.71 27.5509 139.564 28.085C140.437 28.6191 141.62 28.8862 143.113 28.8862C144.451 28.8862 145.489 28.6287 146.226 28.1136C146.963 27.5795 147.332 26.8833 147.332 26.0249C147.332 25.3573 147.118 24.8327 146.692 24.4512C146.284 24.0697 145.77 23.7836 145.15 23.5928C144.548 23.383 143.734 23.1827 142.706 22.992C141.523 22.7631 140.572 22.5342 139.855 22.3053C139.137 22.0573 138.526 21.6758 138.022 21.1608C137.518 20.6457 137.265 19.9304 137.265 19.0148C137.265 17.8321 137.75 16.8689 138.72 16.1249C139.69 15.381 141.125 15.009 143.026 15.009C144.267 15.009 145.295 15.2093 146.11 15.6099C146.924 16.0105 147.516 16.516 147.884 17.1264C148.272 17.7177 148.466 18.3281 148.466 18.9576L148.437 19.3582H146.982V18.9862C146.982 18.3758 146.701 17.7845 146.139 17.2122C145.596 16.6209 144.471 16.3252 142.764 16.3252C141.115 16.3252 140.029 16.6018 139.506 17.155C139.001 17.7082 138.749 18.309 138.749 18.9576C138.749 19.5108 138.943 19.959 139.331 20.3024C139.719 20.6457 140.204 20.9128 140.786 21.1035C141.368 21.2752 142.172 21.466 143.2 21.6758C144.384 21.9238 145.353 22.1717 146.11 22.4197C146.866 22.6677 147.506 23.0587 148.03 23.5928C148.554 24.1269 148.815 24.8422 148.815 25.7388C148.815 27.3029 148.263 28.4379 147.157 29.1437C146.071 29.8495 144.597 30.2023 142.735 30.2023C141.319 30.2023 140.165 29.983 139.273 29.5443C138.4 29.1055 137.77 28.5714 137.382 27.942C137.013 27.3125 136.829 26.7116 136.829 26.1394C136.829 25.9105 136.829 25.7388 136.829 25.6243C136.848 25.5099 136.858 25.4431 136.858 25.424H138.313Z" fill="#22242D"/>
<path d="M135.404 24.4512C135.404 25.7292 135.094 26.807 134.473 27.6844C133.852 28.5428 133.028 29.1818 132 29.6015C130.991 30.0021 129.886 30.2023 128.683 30.2023H128.218C126.841 30.2023 125.6 29.9162 124.494 29.344C123.389 28.7717 122.516 27.9515 121.876 26.8833C121.255 25.796 120.945 24.5084 120.945 23.0206V22.1908C120.945 20.722 121.265 19.444 121.905 18.3567C122.545 17.2694 123.408 16.4397 124.494 15.8674C125.6 15.2952 126.841 15.009 128.218 15.009H128.683C129.886 15.009 131.001 15.257 132.029 15.753C133.057 16.2298 133.881 16.9356 134.502 17.8703C135.123 18.7859 135.433 19.8732 135.433 21.1321V23.3067H125.25V23.9934C125.25 24.9472 125.532 25.7483 126.094 26.3969C126.676 27.0263 127.462 27.3411 128.451 27.3411C129.343 27.3411 130.041 27.1026 130.545 26.6258C131.069 26.1298 131.331 25.405 131.331 24.4512H135.404ZM128.247 17.8703C127.394 17.8703 126.695 18.166 126.152 18.7573C125.629 19.3486 125.328 20.1021 125.25 21.0177H131.127C131.127 20.0449 130.895 19.2819 130.429 18.7287C129.983 18.1564 129.256 17.8703 128.247 17.8703Z" fill="#22242D"/>
<path d="M116.893 20.3024C116.893 19.711 116.729 19.2056 116.399 18.7859C116.069 18.3472 115.545 18.1278 114.828 18.1278C114.149 18.1278 113.625 18.3949 113.257 18.929C112.908 19.444 112.733 20.0925 112.733 20.8746V29.9162H108.544V15.2952H111.686L112.209 17.4411C112.287 17.2313 112.481 16.9356 112.791 16.5541C113.121 16.1726 113.586 15.8197 114.188 15.4954C114.808 15.1712 115.536 15.009 116.37 15.009C117.708 15.009 118.736 15.4191 119.454 16.2394C120.191 17.0596 120.559 18.1469 120.559 19.5012C120.559 19.7873 120.54 20.0735 120.501 20.3596C120.482 20.6457 120.462 20.846 120.443 20.9605H116.893V20.3024Z" fill="#22242D"/>
<path d="M105.422 26.4827C105.422 26.7688 105.509 26.9881 105.684 27.1407C105.858 27.2743 106.052 27.341 106.266 27.341C106.459 27.341 106.673 27.3029 106.906 27.2266C107.138 27.1503 107.323 27.0835 107.458 27.0263V29.6014C106.741 30.002 105.887 30.2023 104.898 30.2023C102.959 30.2023 101.834 29.5061 101.523 28.1136C100.301 29.5061 98.808 30.2023 97.043 30.2023C95.5302 30.2023 94.2792 29.8017 93.29 29.0006C92.3203 28.1994 91.8354 27.0358 91.8354 25.5098V15.2951H96.083V24.5942C96.083 25.3381 96.2963 25.9581 96.723 26.454C97.1691 26.9309 97.7316 27.1694 98.4104 27.1694C99.1668 27.1694 99.8166 26.8928 100.36 26.3396C100.903 25.7673 101.174 25.0806 101.174 24.2795V15.2951H105.422V26.4827Z" fill="#22242D"/>
<path d="M80.1871 23.9934C80.1871 24.9472 80.4392 25.7483 80.9435 26.3969C81.4478 27.0263 82.1266 27.3411 82.98 27.3411C83.8722 27.3411 84.5705 27.074 85.0747 26.5399C85.5984 25.9868 85.8602 25.1761 85.8602 24.1079H89.8751C89.8751 25.4622 89.5744 26.5972 88.9732 27.5128C88.3913 28.4284 87.6155 29.1055 86.6458 29.5443C85.676 29.983 84.6092 30.2023 83.4455 30.2023H82.98C80.8078 30.2023 79.0816 29.5729 77.8015 28.3139C76.5214 27.0359 75.8813 25.2714 75.8813 23.0206V22.1908C75.8813 20.703 76.182 19.4249 76.7832 18.3567C77.4039 17.2694 78.2476 16.4397 79.3143 15.8674C80.3811 15.2952 81.603 15.009 82.98 15.009H83.4455C84.5898 15.009 85.6469 15.257 86.6167 15.753C87.6058 16.2298 88.3913 16.9356 88.9732 17.8703C89.5744 18.7859 89.8751 19.8732 89.8751 21.1321H85.6566C85.6566 20.1402 85.4335 19.3486 84.9875 18.7573C84.5414 18.166 83.8819 17.8703 83.0091 17.8703C82.1363 17.8703 81.4478 18.2137 80.9435 18.9004C80.4392 19.568 80.1871 20.4168 80.1871 21.4469V23.9934Z" fill="#22242D"/>
<path d="M74.5144 24.4512C74.5144 25.7292 74.2041 26.807 73.5835 27.6844C72.9628 28.5428 72.1385 29.1818 71.1106 29.6015C70.102 30.0021 68.9965 30.2023 67.794 30.2023H67.3285C65.9514 30.2023 64.7101 29.9162 63.6046 29.344C62.499 28.7717 61.6263 27.9515 60.9862 26.8833C60.3656 25.796 60.0552 24.5084 60.0552 23.0206V22.1908C60.0552 20.722 60.3753 19.444 61.0153 18.3567C61.6554 17.2694 62.5184 16.4397 63.6046 15.8674C64.7101 15.2952 65.9514 15.009 67.3285 15.009H67.794C68.9965 15.009 70.1117 15.257 71.1397 15.753C72.1676 16.2298 72.9919 16.9356 73.6126 17.8703C74.2332 18.7859 74.5435 19.8732 74.5435 21.1321V23.3067H64.361V23.9934C64.361 24.9472 64.6422 25.7483 65.2047 26.3969C65.7866 27.0263 66.5721 27.3411 67.5612 27.3411C68.4534 27.3411 69.1516 27.1026 69.6559 26.6258C70.1796 26.1298 70.4414 25.405 70.4414 24.4512H74.5144ZM67.3576 17.8703C66.5042 17.8703 65.8059 18.166 65.2629 18.7573C64.7392 19.3486 64.4386 20.1021 64.361 21.0177H70.2378C70.2378 20.0449 70.005 19.2819 69.5395 18.7287C69.0935 18.1564 68.3661 17.8703 67.3576 17.8703Z" fill="#22242D"/>
<path d="M48.8817 25.4527C48.8817 26.1203 49.1823 26.6067 49.7835 26.9119C50.3848 27.198 51.1315 27.3411 52.0237 27.3411C52.7995 27.3411 53.488 27.2266 54.0893 26.9977C54.71 26.7688 55.0203 26.4064 55.0203 25.9105C55.0203 25.3764 54.739 24.9948 54.1766 24.7659C53.6141 24.537 52.7413 24.3368 51.5582 24.1651C50.3169 23.9553 49.2987 23.7264 48.5034 23.4784C47.7082 23.2304 47.0197 22.8012 46.4378 22.1908C45.8754 21.5804 45.5941 20.7316 45.5941 19.6443C45.5941 18.6524 45.8851 17.8131 46.4669 17.1264C47.0682 16.4206 47.8537 15.896 48.8235 15.5527C49.8126 15.1902 50.8891 15.009 52.0528 15.009H52.6347C53.6626 15.009 54.6324 15.1807 55.544 15.5241C56.4749 15.8483 57.2216 16.3157 57.7841 16.9261C58.3466 17.5174 58.6278 18.1946 58.6278 18.9576C58.6278 19.1102 58.6181 19.2532 58.5987 19.3868C58.5793 19.5012 58.5696 19.568 58.5696 19.5871H54.8457C54.8457 18.4426 53.9535 17.8703 52.1692 17.8703C51.3546 17.8703 50.6951 17.9847 50.1908 18.2136C49.706 18.4426 49.4635 18.7573 49.4635 19.1579C49.4635 19.6347 49.7254 19.9686 50.249 20.1593C50.7921 20.3501 51.6358 20.5313 52.7801 20.703C54.0796 20.9128 55.127 21.1417 55.9222 21.3897C56.7368 21.6186 57.4447 22.0477 58.0459 22.6772C58.6472 23.2876 58.9478 24.1555 58.9478 25.281C58.9478 27.0168 58.3272 28.2758 57.0859 29.0578C55.8446 29.8208 54.2639 30.2023 52.3437 30.2023H51.3837C50.1811 30.2023 49.1047 30.0211 48.1543 29.6587C47.204 29.2963 46.4572 28.7813 45.9142 28.1136C45.3905 27.446 45.1287 26.683 45.1287 25.8246L45.1578 25.2524H48.8817V25.4527Z" fill="#22242D"/>
</svg>
