<svg width="116" height="26" viewBox="0 0 116 26" fill="none" xmlns="http://www.w3.org/2000/svg">
<path fill-rule="evenodd" clip-rule="evenodd" d="M11.7122 2C13.9474 2 16.0334 2.68772 17.7586 3.86485H17.7575C19.4827 5.04082 20.8519 6.70619 21.6732 8.66614C22.2211 9.97316 22.5232 11.4112 22.5232 12.9154C22.5232 15.1722 21.842 17.2783 20.6761 19.0191C19.5115 20.761 17.862 22.1434 15.9208 22.9726C14.6262 23.5258 13.2019 23.8308 11.7122 23.8308C9.47685 23.8308 7.39091 23.1431 5.6668 21.9659C3.94153 20.79 2.57234 19.1246 1.75106 17.1647C1.20316 15.8576 0.901062 14.4196 0.901062 12.9154C0.901062 10.6586 1.58221 8.55248 2.74809 6.81173C3.91281 5.06981 5.56227 3.68741 7.50348 2.8582C8.79801 2.30501 10.2223 2 11.7122 2ZM16.5456 20.1544C17.9263 19.2127 19.0233 17.8779 19.6791 16.3134C20.1156 15.2697 20.358 14.125 20.358 12.9166C20.3569 11.1051 19.8147 9.43153 18.882 8.03756C17.9492 6.64357 16.6272 5.53602 15.0777 4.87381C14.0439 4.43312 12.9102 4.18841 11.7133 4.18841C9.91911 4.18957 8.26162 4.73697 6.88092 5.67867C5.50024 6.62037 4.40329 7.95522 3.74741 9.51967C3.31092 10.5634 3.06856 11.7081 3.06856 12.9166C3.06971 14.728 3.61187 16.4016 4.54457 17.7956C5.47727 19.1895 6.79936 20.2971 8.34886 20.9593C9.38265 21.4 10.5164 21.6447 11.7133 21.6447C13.5075 21.6436 15.165 21.0961 16.5456 20.1544ZM16.153 8.31933H7.27163V10.7026H16.153V8.31933ZM7.27163 11.9587V17.5126H10.1341V14.3164H11.3344L12.9379 17.5126H16.1197L14.4932 14.3164H16.1541V11.9587H7.27163Z" fill="url(#paint0_linear_718_13185)"/>
<path fill-rule="evenodd" clip-rule="evenodd" d="M36.3346 6.05273C40.3466 6.05273 42.4187 6.96648 42.4189 10.0277C42.4188 11.796 41.5711 12.9949 39.8575 13.584L42.9841 19.842H40.2905L37.4086 14.0224C37.1823 14.0409 36.9376 14.0409 36.693 14.0409H34.3762V19.842H31.9835V6.05273H36.3346ZM34.375 12.1205H36.7493C38.8019 12.1205 39.97 11.7018 39.97 10.0469C39.97 8.23999 38.5572 7.99297 36.6734 7.99297H34.375V12.1205ZM43.8684 6.05353H46.1106V8.33588H43.8684V6.05353ZM46.1106 9.61056H43.8684V19.8429H46.1106V9.61056ZM49.7222 11.0371C50.3057 9.97133 51.3613 9.38214 52.7925 9.38214L52.7936 9.3833C55.2426 9.3833 56.2407 10.9814 56.2407 13.4157V19.8441H53.9986V13.9666C53.9986 12.5772 53.8102 11.2273 52.0769 11.2273C50.3436 11.2273 49.7222 12.5587 49.7222 14.4038V19.8429H47.48V9.61063H49.7222V11.0371ZM61.5909 9.38139C62.9466 9.38139 64.0006 9.97092 64.6038 10.9776V9.60865H66.8459V18.8146C66.8459 20.4696 66.4313 21.6676 65.6215 22.4284C64.8117 23.1891 63.6068 23.5312 62.0239 23.5312C59.8013 23.5312 58.0496 22.6371 57.6913 20.393H59.9139C60.1206 21.3626 60.7236 21.7429 62.0802 21.7429C63.0784 21.7429 63.7193 21.4577 64.0961 21.0007C64.4729 20.5635 64.605 19.9361 64.605 19.2704V18.0724C64.0019 19.0813 62.9475 19.6705 61.5909 19.6705C59.1787 19.6705 57.1824 17.7117 57.1824 14.5167C57.1824 11.3216 59.1799 9.38139 61.5909 9.38139ZM62.0802 17.8834C60.5732 17.8834 59.5188 16.6285 59.5188 14.5167C59.5188 12.4048 60.5732 11.1883 62.0802 11.1883C63.5872 11.1883 64.6992 12.2343 64.6992 14.5167C64.6992 16.799 63.531 17.8834 62.0802 17.8834ZM71.0672 9.61042H73.064H73.0653V11.2456H71.0686V19.8427H68.8265V11.2456H67.4137V9.61042H68.8265V8.98303C68.8265 6.60556 69.7124 6.05353 72.1795 6.05353H73.0653V7.78384H72.4241C71.3125 7.78384 71.0672 7.99376 71.0672 9.05841V9.61042ZM77.6008 9.38255C74.7188 9.38255 72.6275 11.5698 72.6275 14.6512C72.6275 17.7326 74.4931 20.0903 77.7515 20.0903C80.351 20.0903 81.8957 18.4168 82.3485 16.7804H80.1442C79.7476 17.75 78.8441 18.207 77.6576 18.207C76.3764 18.207 75.058 17.2745 74.9067 15.3726H82.4613C82.6681 11.949 80.7092 9.38139 77.6008 9.38139V9.38255ZM74.9074 13.7188C75.1141 11.7983 76.5467 11.1511 77.6008 11.1511C78.9198 11.1511 80.126 12.1206 80.1821 13.7188H74.9074ZM85.5595 11.0371C86.1433 9.97133 87.1988 9.38214 88.63 9.38214L88.6314 9.3833C91.0802 9.3833 92.0783 10.9814 92.0783 13.4157V19.8441H89.8362V13.9666C89.8362 12.5772 89.6477 11.2273 87.9144 11.2273C86.1812 11.2273 85.5595 12.5587 85.5595 14.4038V19.8429H83.3175V9.61063H85.5595V11.0371ZM97.9388 18.2076C96.6205 18.2076 95.3393 17.1615 95.3393 14.7273C95.3393 12.293 96.5826 11.2655 97.9956 11.2655C99.22 11.2655 100.143 12.0263 100.35 13.1106H102.534C102.14 10.8468 100.218 9.38323 97.9956 9.38323C94.9629 9.38323 93.0216 11.7038 93.0216 14.747C93.0216 17.7901 94.9616 20.0911 97.901 20.0911C100.067 20.0911 102.158 18.7411 102.611 16.3439H100.426C100.125 17.7136 99.0511 18.2076 97.9388 18.2076ZM103.007 14.6512C103.007 11.5698 105.098 9.38255 107.98 9.38255V9.38139C111.088 9.38139 113.047 11.949 112.841 15.3726H105.286C105.437 17.2745 106.756 18.207 108.037 18.207C109.223 18.207 110.127 17.75 110.524 16.7804H112.728C112.275 18.4168 110.73 20.0903 108.131 20.0903C104.872 20.0903 103.007 17.7326 103.007 14.6512ZM107.98 11.1511C106.926 11.1511 105.493 11.7983 105.287 13.7188H110.561C110.505 12.1206 109.299 11.1511 107.98 11.1511Z" fill="black"/>
<defs>
<linearGradient id="paint0_linear_718_13185" x1="0.901062" y1="11.427" x2="22.5232" y2="11.427" gradientUnits="userSpaceOnUse">
<stop stop-color="#4ADC8C"/>
<stop offset="1" stop-color="#4ADCCA"/>
</linearGradient>
</defs>
</svg>
