<svg width="186" height="73" viewBox="0 0 186 73" fill="none" xmlns="http://www.w3.org/2000/svg">
<path fill-rule="evenodd" clip-rule="evenodd" d="M24 12.5H55.4194L55.4195 28.4253H39.8228V44.5748H55.4195L55.4195 28.6494C64.283 28.6494 71.4682 35.7794 71.4682 44.5746C71.4682 53.3699 64.283 60.4999 55.4195 60.4999C46.556 60.4999 39.3707 53.37 39.3707 44.5748H24V12.5Z" fill="black"/>
<path d="M143.822 28.9237L143.832 23.7952H144.459L149.435 17.9442H154.381L147.695 25.692H146.674L143.822 28.9237ZM139.918 33.3596V12.8057H144.226V33.3596H139.918ZM149.627 33.3596L145.055 26.6455L147.928 23.6246L154.674 33.3596H149.627Z" fill="black"/>
<path d="M131.075 33.6604C129.484 33.6604 128.115 33.3259 126.969 32.6568C125.829 31.9811 124.953 31.0444 124.339 29.8467C123.732 28.6491 123.429 27.2708 123.429 25.7118C123.429 24.1328 123.736 22.7478 124.349 21.5569C124.97 20.3592 125.85 19.4259 126.989 18.7568C128.129 18.081 129.484 17.7432 131.055 17.7432C132.41 17.7432 133.597 17.9874 134.615 18.4758C135.633 18.9642 136.439 19.65 137.032 20.5332C137.626 21.4164 137.953 22.4534 138.013 23.6444H133.948C133.833 22.875 133.53 22.2561 133.037 21.7877C132.552 21.3127 131.915 21.0752 131.126 21.0752C130.458 21.0752 129.875 21.2558 129.376 21.6171C128.884 21.9717 128.499 22.4902 128.223 23.1727C127.947 23.8552 127.808 24.6815 127.808 25.6516C127.808 26.6352 127.943 27.4715 128.213 28.1606C128.489 28.8498 128.877 29.375 129.376 29.7363C129.875 30.0976 130.458 30.2783 131.126 30.2783C131.618 30.2783 132.06 30.1779 132.451 29.9772C132.848 29.7765 133.176 29.4854 133.432 29.104C133.695 28.716 133.867 28.251 133.948 27.709H138.013C137.946 28.8866 137.622 29.9237 137.042 30.8202C136.469 31.7101 135.677 32.4059 134.666 32.9077C133.654 33.4095 132.457 33.6604 131.075 33.6604Z" fill="black"/>
<path d="M114.463 33.6604C112.892 33.6604 111.533 33.3292 110.387 32.6669C109.247 31.9978 108.367 31.0678 107.747 29.8768C107.127 28.6792 106.817 27.2908 106.817 25.7118C106.817 24.1194 107.127 22.7278 107.747 21.5368C108.367 20.3392 109.247 19.4092 110.387 18.7468C111.533 18.0777 112.892 17.7432 114.463 17.7432C116.034 17.7432 117.389 18.0777 118.529 18.7468C119.675 19.4092 120.558 20.3392 121.178 21.5368C121.799 22.7278 122.109 24.1194 122.109 25.7118C122.109 27.2908 121.799 28.6792 121.178 29.8768C120.558 31.0678 119.675 31.9978 118.529 32.6669C117.389 33.3292 116.034 33.6604 114.463 33.6604ZM114.483 30.3485C115.198 30.3485 115.794 30.1478 116.273 29.7464C116.752 29.3382 117.113 28.7829 117.355 28.0804C117.605 27.3778 117.73 26.5783 117.73 25.6817C117.73 24.7852 117.605 23.9856 117.355 23.2831C117.113 22.5806 116.752 22.0252 116.273 21.6171C115.794 21.209 115.198 21.0049 114.483 21.0049C113.762 21.0049 113.155 21.209 112.662 21.6171C112.177 22.0252 111.81 22.5806 111.56 23.2831C111.317 23.9856 111.196 24.7852 111.196 25.6817C111.196 26.5783 111.317 27.3778 111.56 28.0804C111.81 28.7829 112.177 29.3382 112.662 29.7464C113.155 30.1478 113.762 30.3485 114.483 30.3485Z" fill="black"/>
<path d="M104.847 12.8057V33.3596H100.538V12.8057H104.847Z" fill="black"/>
<path d="M82.477 33.3596V12.8057H90.7704C92.2943 12.8057 93.5652 13.0298 94.5834 13.4781C95.6015 13.9264 96.3668 14.5486 96.8793 15.3448C97.3917 16.1343 97.6479 17.0442 97.6479 18.0746C97.6479 18.8775 97.4861 19.5834 97.1624 20.1922C96.8388 20.7944 96.3938 21.2895 95.8274 21.6776C95.2678 22.059 94.6272 22.3299 93.9057 22.4905V22.6912C94.6946 22.7247 95.433 22.9455 96.1207 23.3536C96.8152 23.7618 97.3782 24.3338 97.8097 25.0698C98.2413 25.7991 98.457 26.6689 98.457 27.6792C98.457 28.7698 98.184 29.7433 97.6378 30.5997C97.0984 31.4494 96.2994 32.1218 95.2408 32.6169C94.1822 33.1121 92.8775 33.3596 91.3267 33.3596H82.477ZM86.8563 29.8068H90.4265C91.647 29.8068 92.537 29.576 93.0966 29.1143C93.6563 28.646 93.9361 28.0238 93.9361 27.2476C93.9361 26.6789 93.7979 26.1771 93.5214 25.7422C93.245 25.3073 92.8505 24.9661 92.3381 24.7185C91.8324 24.471 91.2289 24.3472 90.5277 24.3472H86.8563V29.8068ZM86.8563 21.4066H90.1029C90.703 21.4066 91.2357 21.3029 91.7009 21.0955C92.1729 20.8814 92.5437 20.5803 92.8134 20.1922C93.0899 19.8042 93.2281 19.3392 93.2281 18.7972C93.2281 18.0545 92.9618 17.4557 92.4291 17.0008C91.9032 16.5458 91.1547 16.3183 90.1838 16.3183H86.8563V21.4066Z" fill="black"/>
<path d="M154.926 58.1073C153.341 58.1073 151.976 57.7887 150.833 57.1515C149.695 56.5077 148.819 55.5983 148.204 54.4235C147.588 53.242 147.281 51.8447 147.281 50.2318C147.281 48.6587 147.588 47.278 148.204 46.0899C148.819 44.9018 149.685 43.9758 150.802 43.3121C151.926 42.6483 153.244 42.3164 154.756 42.3164C155.772 42.3164 156.719 42.479 157.595 42.8043C158.478 43.1229 159.247 43.6041 159.903 44.248C160.565 44.8918 161.08 45.7016 161.448 46.6773C161.816 47.6464 162 48.7815 162 50.0824V51.2473H148.986V48.6188H157.976C157.976 48.0082 157.843 47.4672 157.575 46.9959C157.308 46.5247 156.936 46.1563 156.461 45.8908C155.993 45.6186 155.448 45.4826 154.826 45.4826C154.177 45.4826 153.602 45.6319 153.1 45.9306C152.605 46.2227 152.217 46.6176 151.936 47.1154C151.655 47.6066 151.511 48.1542 151.505 48.7582V51.2573C151.505 52.014 151.645 52.6678 151.926 53.2187C152.214 53.7697 152.619 54.1945 153.14 54.4932C153.662 54.7918 154.281 54.9412 154.996 54.9412C155.471 54.9412 155.906 54.8748 156.301 54.7421C156.696 54.6093 157.033 54.4102 157.314 54.1447C157.595 53.8792 157.809 53.5539 157.956 53.1689L161.91 53.4278C161.709 54.3704 161.298 55.1934 160.676 55.897C160.06 56.594 159.264 57.1383 158.288 57.5299C157.318 57.9149 156.197 58.1073 154.926 58.1073Z" fill="black"/>
<path d="M138.848 58.1073C137.269 58.1073 135.911 57.7755 134.774 57.1117C133.644 56.4413 132.774 55.512 132.166 54.3239C131.563 53.1358 131.262 51.7684 131.262 50.2218C131.262 48.6553 131.567 47.2814 132.176 46.0999C132.791 44.9117 133.664 43.9858 134.794 43.322C135.925 42.6516 137.269 42.3164 138.828 42.3164C140.172 42.3164 141.35 42.5587 142.36 43.0432C143.37 43.5278 144.169 44.2081 144.758 45.0843C145.346 45.9605 145.671 46.9893 145.731 48.1708H141.698C141.584 47.4075 141.283 46.7935 140.794 46.3289C140.313 45.8576 139.681 45.622 138.898 45.622C138.236 45.622 137.657 45.8012 137.162 46.1596C136.674 46.5114 136.293 47.0258 136.018 47.7028C135.744 48.3799 135.607 49.1996 135.607 50.1621C135.607 51.1378 135.741 51.9675 136.008 52.6512C136.283 53.3349 136.667 53.8559 137.162 54.2144C137.657 54.5728 138.236 54.752 138.898 54.752C139.386 54.752 139.825 54.6525 140.213 54.4533C140.607 54.2542 140.932 53.9655 141.186 53.5871C141.447 53.2021 141.617 52.7408 141.698 52.2032H145.731C145.664 53.3714 145.343 54.4002 144.768 55.2897C144.199 56.1725 143.413 56.8628 142.41 57.3606C141.407 57.8584 140.219 58.1073 138.848 58.1073Z" fill="black"/>
<path d="M124.751 57.8087V42.5155H129.026V57.8087H124.751ZM126.899 40.5442C126.263 40.5442 125.718 40.3351 125.263 39.9169C124.815 39.4921 124.591 38.9843 124.591 38.3936C124.591 37.8095 124.815 37.3083 125.263 36.8901C125.718 36.4653 126.263 36.2529 126.899 36.2529C127.534 36.2529 128.076 36.4653 128.524 36.8901C128.979 37.3083 129.206 37.8095 129.206 38.3936C129.206 38.9843 128.979 39.4921 128.524 39.9169C128.076 40.3351 127.534 40.5442 126.899 40.5442Z" fill="black"/>
<path d="M122.705 42.5154V45.7015H113.193V42.5154H122.705ZM115.37 57.8086V41.4103C115.37 40.3018 115.588 39.3825 116.023 38.6523C116.464 37.9222 117.066 37.3746 117.829 37.0095C118.591 36.6444 119.458 36.4619 120.427 36.4619C121.083 36.4619 121.682 36.5117 122.224 36.6113C122.772 36.7108 123.18 36.8004 123.448 36.8801L122.685 40.0662C122.518 40.0131 122.31 39.9633 122.063 39.9168C121.822 39.8703 121.575 39.8471 121.32 39.8471C120.692 39.8471 120.254 39.9931 120.006 40.2852C119.759 40.5706 119.635 40.9722 119.635 41.4899V57.8086H115.37Z" fill="black"/>
<path d="M112.371 42.5154V45.7015H102.859V42.5154H112.371ZM105.036 57.8086V41.4103C105.036 40.3018 105.254 39.3825 105.689 38.6523C106.13 37.9222 106.732 37.3746 107.495 37.0095C108.257 36.6444 109.124 36.4619 110.093 36.4619C110.749 36.4619 111.348 36.5117 111.889 36.6113C112.438 36.7108 112.846 36.8004 113.114 36.8801L112.351 40.0662C112.184 40.0131 111.976 39.9633 111.729 39.9168C111.488 39.8703 111.241 39.8471 110.986 39.8471C110.358 39.8471 109.92 39.9931 109.672 40.2852C109.425 40.5706 109.301 40.9722 109.301 41.4899V57.8086H105.036Z" fill="black"/>
<path d="M101.345 47.6129C101.345 49.8365 100.92 51.7282 100.071 53.288C99.2277 54.8479 98.0772 56.0393 96.6189 56.8624C95.1674 57.6788 93.5352 58.0871 91.7225 58.0871C89.8963 58.0871 88.2575 57.6755 86.806 56.8525C85.3544 56.0294 84.2072 54.8379 83.3644 53.2781C82.5216 51.7182 82.1002 49.8298 82.1002 47.6129C82.1002 45.3893 82.5216 43.4975 83.3644 41.9377C84.2072 40.3778 85.3544 39.1897 86.806 38.3733C88.2575 37.5502 89.8963 37.1387 91.7225 37.1387C93.5352 37.1387 95.1674 37.5502 96.6189 38.3733C98.0772 39.1897 99.2277 40.3778 100.071 41.9377C100.92 43.4975 101.345 45.3893 101.345 47.6129ZM96.94 47.6129C96.94 46.1725 96.7226 44.9578 96.2878 43.9688C95.8597 42.9798 95.2543 42.2297 94.4717 41.7186C93.6891 41.2075 92.7727 40.952 91.7225 40.952C90.6723 40.952 89.7559 41.2075 88.9732 41.7186C88.1906 42.2297 87.5819 42.9798 87.1471 43.9688C86.719 44.9578 86.505 46.1725 86.505 47.6129C86.505 49.0532 86.719 50.2679 87.1471 51.2569C87.5819 52.2459 88.1906 52.996 88.9732 53.5071C89.7559 54.0182 90.6723 54.2737 91.7225 54.2737C92.7727 54.2737 93.6891 54.0182 94.4717 53.5071C95.2543 52.996 95.8597 52.2459 96.2878 51.2569C96.7226 50.2679 96.94 49.0532 96.94 47.6129Z" fill="black"/>
</svg>
