<svg width="200" height="73" viewBox="0 0 200 73" fill="none" xmlns="http://www.w3.org/2000/svg">
<path d="M96.9947 21.374H91.7819L88.7629 33.0086L85.7438 21.374H80.4008V36.2128H83.8108V29.6321C83.8108 28.1914 83.8108 26.2558 83.7673 24.729C84.0497 26.2558 84.5492 28.1914 84.9619 29.6106L86.895 36.2128H90.5005L92.3901 29.6106C92.8245 28.1914 93.324 26.2343 93.6281 24.7075C93.5847 26.2343 93.5847 28.1914 93.5847 29.6321V36.2128H96.9947V21.374Z" fill="black"/>
<path d="M111.868 32.0192L113.236 36.2128H116.929L111.586 21.374H107.372L101.964 36.2128H105.591L106.981 32.0192H111.868ZM109.435 24.2988L111.021 29.3742H107.828L109.435 24.2988Z" fill="black"/>
<path d="M129.485 28.4927V31.1163H132.526C132.135 33.0088 130.918 34.0197 129.181 34.0197C127.052 34.0197 125.358 32.4067 125.358 28.6863C125.358 25.3959 127.031 23.5679 129.224 23.5679C131.049 23.5679 132.113 24.4928 132.46 26.2132L132.504 26.4281H135.892L135.87 26.2132C135.566 23.2884 133.438 21.0732 129.268 21.0732C125.119 21.0732 121.774 23.8906 121.774 28.8798C121.774 33.7185 124.489 36.5142 128.573 36.5142C130.201 36.5142 131.287 36.1917 132.135 35.4174L132.808 33.8691L133.069 36.2132H135.762V28.4927H129.485Z" fill="black"/>
<path d="M146.912 36.2128V21.374H143.502V36.2128H146.912Z" fill="black"/>
<path d="M161.707 21.0732C157.58 21.0732 154.366 23.8906 154.366 28.8798C154.366 33.7401 157.406 36.5142 161.512 36.5142C165.312 36.5142 167.897 34.5573 168.245 31.2024L168.266 30.9874H164.856L164.813 31.2024C164.465 32.9658 163.401 34.0197 161.642 34.0197C159.6 34.0197 157.949 32.4067 157.949 28.6863C157.949 25.3959 159.492 23.5679 161.663 23.5679C163.466 23.5679 164.531 24.4928 164.878 26.2132L164.921 26.4281H168.331L168.31 26.2132C168.006 23.2884 165.855 21.0732 161.707 21.0732Z" fill="black"/>
<path d="M82.8985 44.999C81.9284 44.999 81.2189 45.257 80.5962 45.9452L80.1473 46.7912V45.1138H79.5971V55.5654H80.1473V51.2068L80.5817 52.0958C81.1465 52.698 81.827 52.956 82.7103 52.956C84.5782 52.956 86.2434 51.6084 86.2434 48.8986C86.2434 46.6334 84.9547 44.999 82.8985 44.999ZM82.7103 52.4972C81.5374 52.4972 80.1473 51.766 80.1473 49.4291V48.6837C80.1473 46.2894 81.3926 45.4578 82.8406 45.4578C84.6651 45.4578 85.6352 47.0635 85.6352 48.9847C85.6352 51.1065 84.4189 52.4972 82.7103 52.4972Z" fill="black"/>
<path d="M96.2683 44.999C94.0094 44.999 92.6338 46.6477 92.6338 48.9847C92.6338 51.3072 94.0094 52.956 96.2683 52.956C98.527 52.956 99.9026 51.3072 99.9026 48.9847C99.9026 46.6477 98.527 44.999 96.2683 44.999ZM96.2683 52.4972C94.6465 52.4972 93.2419 51.3216 93.2419 48.9847C93.2419 46.6334 94.6465 45.4578 96.2683 45.4578C97.89 45.4578 99.309 46.6334 99.309 48.9847C99.309 51.3216 97.89 52.4972 96.2683 52.4972Z" fill="black"/>
<path d="M116.661 45.6279H116.067L113.953 52.6245L111.882 45.6423H111.158L109.102 52.6532L106.93 45.6279H106.293L108.726 53.1837H109.464L111.52 46.2014L113.576 53.1837H114.242L116.661 45.6279Z" fill="black"/>
<path d="M130.365 48.7695C130.365 46.8055 129.308 44.999 127.151 44.999C125.211 44.999 123.69 46.5617 123.69 48.956C123.69 51.6084 125.196 52.956 127.021 52.956C128.497 52.956 129.83 52.1102 130.25 50.4041H129.685C129.308 51.8377 128.208 52.4972 127.05 52.4972C125.717 52.4972 124.356 51.5797 124.269 49.1281H130.351C130.365 48.9416 130.365 48.8412 130.365 48.7695ZM127.122 45.4578C128.411 45.4578 129.714 46.3181 129.801 48.655H124.269C124.356 46.49 125.79 45.4578 127.122 45.4578Z" fill="black"/>
<path d="M140.256 44.999C139.633 44.999 139.083 45.3 138.706 45.8161L138.301 46.7338V45.1996H137.75V52.7554H138.301V48.5689C138.301 46.275 139.271 45.3861 140.646 45.4865V45.042C140.531 45.0134 140.4 44.999 140.256 44.999Z" fill="black"/>
<path d="M154.65 48.7695C154.65 46.8055 153.593 44.999 151.436 44.999C149.496 44.999 147.975 46.5617 147.975 48.956C147.975 51.6084 149.481 52.956 151.306 52.956C152.782 52.956 154.115 52.1102 154.535 50.4041H153.97C153.593 51.8377 152.493 52.4972 151.335 52.4972C150.002 52.4972 148.641 51.5797 148.554 49.1281H154.636C154.65 48.9416 154.65 48.8412 154.65 48.7695ZM151.407 45.4578C152.696 45.4578 153.999 46.3181 154.086 48.655H148.554C148.641 46.49 150.075 45.4578 151.407 45.4578Z" fill="black"/>
<path d="M166.763 42.4814H166.213V46.9977L165.779 46.1231C165.214 45.5209 164.533 45.263 163.65 45.263C161.782 45.263 160.117 46.6105 160.117 49.306C160.117 51.5855 161.406 53.2199 163.462 53.2199C164.432 53.2199 165.142 52.9619 165.764 52.2737L166.213 51.4134V53.0193H166.763V42.4814ZM163.52 52.7611C161.695 52.7611 160.725 51.1411 160.725 49.2342C160.725 47.1123 161.942 45.7217 163.65 45.7217C164.823 45.7217 166.213 46.4529 166.213 48.7898V49.5209C166.213 51.9295 164.968 52.7611 163.52 52.7611Z" fill="black"/>
<path d="M70.6505 17.2959H31.6686V55.7033H70.6505V17.2959Z" fill="black"/>
</svg>
