<svg width="192" height="73" viewBox="0 0 192 73" fill="none" xmlns="http://www.w3.org/2000/svg">
<g clip-path="url(#clip0_674_11504)">
<path d="M29.39 29.4132C29.39 25.4959 31.5003 22.3298 35.6099 22.3298C40.2748 22.3298 41.8298 25.2276 41.8298 28.8229V44.3313H47.05V27.9643C47.05 22.2225 43.8845 17.7686 37.4981 17.7686C34.3882 17.7686 31.2227 19.0028 29.2789 22.2225V18.5198H24.1698V44.3313H29.39V29.4132Z" fill="black"/>
<path d="M87.4799 45.7267C88.1463 51.2539 93.1445 55.3324 99.8088 55.3324C109.86 55.3324 113.193 48.9465 113.193 42.3997V18.5201H108.028V22.1154C106.695 19.5397 103.918 18.0371 99.8088 18.0371C92.4781 18.0371 87.5355 23.618 87.5355 30.594C87.5355 37.8921 92.7001 43.0973 99.8088 43.0973C103.807 43.0973 106.695 41.2192 107.972 38.8579V42.5608C107.972 48.1415 105.418 50.9319 99.8088 50.9319C95.7547 50.9319 92.9224 48.1952 92.5336 44.5999L87.4799 45.7267ZM100.586 38.8579C95.8658 38.8579 92.8668 35.6383 92.8668 30.594C92.8668 25.6035 95.9767 22.3301 100.586 22.3301C105.085 22.3301 108.194 25.6035 108.194 30.594C108.194 35.5846 105.085 38.8579 100.586 38.8579Z" fill="black"/>
<path d="M121.585 28.7692C121.807 25.4422 124.473 22.1688 128.86 22.1688C133.581 22.1688 136.08 25.0666 136.191 28.7692H121.585ZM136.968 35.477C135.969 38.3748 133.803 40.6822 129.471 40.6822C124.973 40.6822 121.53 37.4624 121.419 32.8476H141.522C141.578 32.5256 141.633 31.8816 141.633 31.2377C141.633 23.1884 137.024 17.7148 128.805 17.7148C122.085 17.7148 116.032 23.242 116.032 31.345C116.032 40.092 122.307 45.1361 129.471 45.1361C135.691 45.1361 139.967 41.5409 141.467 36.9796L136.968 35.477Z" fill="black"/>
<path d="M150.185 29.4132C150.185 25.4959 152.296 22.3298 156.405 22.3298C161.07 22.3298 162.625 25.2276 162.625 28.8229V44.3312H167.845V27.9644C167.845 22.2225 164.68 17.7686 158.293 17.7686C155.183 17.7686 152.018 19.0028 150.074 22.2225V18.5198H144.965V44.3312H150.185V29.4132Z" fill="black"/>
<path d="M54.6174 17.5H60.1708V22.8662H54.6174V17.5Z" fill="black"/>
<path d="M60.1706 22.8672H65.4464V27.9651H60.1706V22.8672Z" fill="black"/>
<path d="M65.4468 27.9639H71.5556V33.8667H65.4468V27.9639Z" fill="black"/>
<path d="M71.5556 33.8672H76.8316V38.965H71.5556V33.8672Z" fill="black"/>
<path d="M76.8312 38.9658H82.3846V44.3319H76.8312V38.9658Z" fill="black"/>
<path d="M54.6174 44.331V38.9648H60.1708V44.331H54.6174Z" fill="black"/>
<path d="M60.1706 38.9661V33.8682H65.4464V38.9661H60.1706Z" fill="black"/>
<path d="M71.5556 27.9631V22.8652H76.8316V27.9631H71.5556Z" fill="black"/>
<path d="M76.8312 22.8672V17.501L82.3846 17.501V22.8672H76.8312Z" fill="black"/>
</g>
<defs>
<clipPath id="clip0_674_11504">
<rect width="144" height="38" fill="white" transform="translate(24 17.5)"/>
</clipPath>
</defs>
</svg>
