<svg width="245" height="73" viewBox="0 0 245 73" fill="none" xmlns="http://www.w3.org/2000/svg">
<g clip-path="url(#clip0_674_11521)">
<path fill-rule="evenodd" clip-rule="evenodd" d="M165.26 37.1786C161.197 37.1786 159.165 35.1995 159.165 31.2423V23.9457H157.274V20.3866H159.165V16.6025H163.067V20.3866H168.358V23.9457H163.067V31.2423C163.067 32.8276 163.893 33.6196 165.546 33.6196H168.358V37.1786H165.26ZM108.143 37.5063C105.531 37.5063 103.393 36.6919 101.73 35.0634C100.066 33.4338 99.2345 31.329 99.2345 28.7817C99.2345 26.2344 100.069 24.1443 101.737 22.5095C103.407 20.8757 105.542 20.0583 108.143 20.0583C110.073 20.0583 111.719 20.6381 113.081 21.7966V20.3867H117.066V37.1778H113.081V35.7679C111.765 36.9264 110.118 37.5063 108.143 37.5063ZM108.143 23.6174C106.635 23.6174 105.424 24.0905 104.509 25.0357C103.593 25.9809 103.136 27.2292 103.136 28.7817C103.136 30.3342 103.593 31.5836 104.509 32.5288C105.424 33.475 106.658 33.9471 108.143 33.9471C109.628 33.9471 110.822 33.4772 111.726 32.5372C112.63 31.5973 113.082 30.3468 113.082 28.7828C113.082 27.2187 112.63 25.9672 111.726 25.0272C110.821 24.0873 109.65 23.6174 108.143 23.6174ZM94.3324 26.4711L99.5398 24.3884V20.3868L94.3324 22.6004V20.3868H90.3642V37.1789H94.3324V26.4711ZM124.024 42.8321C123.294 42.8321 122.84 43.3875 122.84 44.0391C122.84 45.0127 123.802 45.4693 124.869 45.9769C126.204 46.6119 127.707 47.3266 127.707 49.2331C127.707 51.2672 126.15 52.6168 124.155 52.6168C122.16 52.6168 120.814 51.2988 120.409 49.5193L121.868 48.6143C122.192 49.8531 122.858 50.9651 124.155 50.9651C125.177 50.9651 125.89 50.2808 125.89 49.2964C125.89 48.3315 124.94 47.8881 123.882 47.3945C122.554 46.7748 121.057 46.0759 121.057 44.1659C121.057 42.4825 122.37 41.2437 124.024 41.2437C125.581 41.2437 126.554 42.0696 127.155 43.1182L125.711 44.0551C125.257 43.2132 124.69 42.8321 124.024 42.8321ZM90.3642 41.3714H92.1478V50.8384H97.0455V52.4901H90.3642V41.3714ZM98.6933 52.4901L102.635 41.3714H104.322L108.263 52.4901H106.446L105.505 49.7263H101.451L100.509 52.4901H98.6933ZM103.479 43.5797L101.986 48.0745H104.97L103.479 43.5797ZM116.557 46.4228C117.222 46.0732 117.708 45.1365 117.708 44.2778C117.708 42.3557 116.41 41.3714 114.529 41.3714H110.507V52.4901H114.725C116.963 52.4901 118.293 51.2988 118.293 49.2183C118.293 47.932 117.626 46.8674 116.557 46.4228ZM112.291 43.0232H114.367C115.373 43.0232 115.924 43.4836 115.924 44.3898C115.924 45.2959 115.373 45.7554 114.367 45.7554H112.291V43.0232ZM114.481 50.8384H112.291V47.4071H114.481C115.794 47.4071 116.476 48.0101 116.476 49.1233C116.476 50.2364 115.794 50.8384 114.481 50.8384ZM122.372 26.4711L127.578 24.3884V20.3868L122.372 22.6004V20.3868H118.404V37.1789H122.372V26.4711ZM139.966 32.4402H144.353C143.885 34.0032 142.896 35.2389 141.389 36.146C139.883 37.0532 138.147 37.5074 136.182 37.5074C133.569 37.5074 131.433 36.6931 129.769 35.0635C128.107 33.434 127.275 31.3302 127.275 28.7829C127.275 26.2356 128.11 24.1445 129.778 22.5107C131.446 20.8769 133.581 20.0594 136.182 20.0594C138.783 20.0594 140.92 20.8769 142.595 22.5107C144.27 24.1445 145.106 26.2356 145.106 28.7829C145.106 29.1335 145.062 29.6257 144.973 30.2593H131.327C131.605 31.4612 132.169 32.4012 133.017 33.0791C133.866 33.7572 134.921 34.0962 136.182 34.0962C137.946 34.0962 139.207 33.5448 139.966 32.4402ZM136.182 23.4707C134.989 23.4707 133.975 23.779 133.144 24.3969C132.311 25.0147 131.74 25.8701 131.427 26.9632H140.887C140.597 25.8701 140.036 25.0147 139.205 24.3969C138.372 23.7801 137.376 23.4707 136.182 23.4707ZM151.199 34.194C150.596 34.194 150.118 34.0165 149.767 33.6606C149.415 33.3057 149.24 32.7998 149.24 32.144H145.288C145.288 33.7398 145.841 35.0325 146.945 36.0221C148.051 37.0116 149.468 37.5069 151.198 37.5069C152.928 37.5069 154.336 37.0423 155.425 36.1129C156.513 35.1835 157.057 33.97 157.057 32.4724C157.057 31.6202 156.913 30.882 156.623 30.2589C156.334 29.6357 155.959 29.152 155.501 28.8078C155.044 28.4635 154.537 28.1741 153.978 27.9386C153.419 27.7031 152.864 27.5045 152.312 27.3398C151.759 27.1761 151.255 27.0061 150.797 26.8318C150.34 26.6565 149.965 26.4189 149.675 26.1189C149.386 25.819 149.24 25.4441 149.24 24.9952C149.24 24.482 149.405 24.0828 149.735 23.7987C150.065 23.5146 150.524 23.372 151.115 23.372C151.708 23.372 152.176 23.5473 152.523 23.8969C152.869 24.2464 153.042 24.7439 153.042 25.3891H157.027C157.027 23.805 156.476 22.5197 155.378 21.5354C154.277 20.5511 152.858 20.06 151.115 20.06C149.52 20.06 148.202 20.5194 147.166 21.4372C146.127 22.3549 145.608 23.542 145.608 24.9952C145.608 25.6732 145.694 26.2773 145.868 26.8075C146.04 27.3377 146.272 27.7749 146.563 28.1192C146.854 28.4635 147.185 28.7645 147.558 29.0211C147.933 29.2777 148.327 29.4858 148.739 29.6442C149.153 29.8026 149.565 29.9505 149.978 30.0867C150.39 30.223 150.784 30.3571 151.159 30.4891C151.533 30.6201 151.864 30.7679 152.153 30.9316C152.444 31.0953 152.675 31.3065 152.849 31.5632C153.021 31.8209 153.109 32.1239 153.109 32.4735C153.109 33.0206 152.939 33.4441 152.598 33.744C152.258 34.0439 151.791 34.1949 151.2 34.1949L151.199 34.194ZM195.379 20.0593C193.704 20.0593 192.32 20.5948 191.226 21.6657V20.3867H187.258V37.1789H191.226V27.1099C191.226 26.0601 191.547 25.2152 192.189 24.5763C192.831 23.9363 193.699 23.6174 194.793 23.6174C195.886 23.6174 196.693 23.9395 197.346 24.5847C197.998 25.23 198.325 26.0717 198.325 27.1099V37.1789H202.276V27.1099C202.276 25.0442 201.631 23.3523 200.342 22.0342C199.053 20.7162 197.398 20.0583 195.378 20.0583L195.379 20.0593ZM205.665 22.5107C207.333 20.8769 209.468 20.0594 212.07 20.0594L212.071 20.0605C214.671 20.0605 216.808 20.8779 218.482 22.5117C220.157 24.1455 220.994 26.2366 220.994 28.784C220.994 29.1335 220.948 29.6257 220.858 30.2593H207.214C207.493 31.4623 208.056 32.4021 208.904 33.0802C209.753 33.7572 210.808 34.0962 212.07 34.0962C213.833 34.0962 215.094 33.5439 215.853 32.4402H220.24C219.771 34.0032 218.783 35.2389 217.277 36.146C215.77 37.0532 214.034 37.5074 212.07 37.5074C209.457 37.5074 207.32 36.6931 205.656 35.0635C203.994 33.4351 203.162 31.3302 203.162 28.7829C203.162 26.2356 203.996 24.1445 205.665 22.5107ZM209.031 24.3969C208.199 25.0147 207.626 25.8701 207.313 26.9632H216.774C216.484 25.8701 215.922 25.0147 215.091 24.3969C214.259 23.779 213.263 23.4707 212.07 23.4707C210.875 23.4707 209.862 23.779 209.031 24.3969ZM177.527 20.0594C174.927 20.0594 172.792 20.8769 171.122 22.5117C169.454 24.1455 168.619 26.2366 168.619 28.784C168.619 31.3313 169.451 33.4351 171.115 35.0646C172.777 36.6931 174.914 37.5074 177.527 37.5074C180.14 37.5074 182.28 36.6931 183.948 35.0646C185.616 33.4351 186.45 31.3418 186.45 28.784C186.45 26.226 185.614 24.1455 183.939 22.5117C182.265 20.8769 180.129 20.0594 177.527 20.0594ZM181.11 32.5384C180.206 33.4793 179.011 33.9483 177.527 33.9483C176.043 33.9483 174.808 33.4762 173.894 32.53C172.978 31.5837 172.521 30.3354 172.521 28.7829C172.521 27.2304 172.978 25.981 173.894 25.0358C174.808 24.0906 176.02 23.6175 177.527 23.6175C179.035 23.6175 180.206 24.0874 181.11 25.0274C182.014 25.9673 182.466 27.2199 182.466 28.7829C182.466 30.346 182.014 31.5985 181.11 32.5384ZM59.6623 18.4114H42.1352L24 33.8771L41.8786 49.1251L51.0671 56.9614L60.2565 49.1251L78.1372 33.8771L60.0009 18.4114H59.6623ZM27.8032 32.9888L38.9725 23.4635L33.3577 32.9888H27.8032ZM27.8022 34.7652H33.3566L38.9725 44.2924L27.8022 34.7652ZM51.068 54.6063L44.8958 49.3426H57.2404C56.0798 50.3319 54.5559 51.6316 53.2481 52.7472L51.068 54.6063ZM74.334 34.7652L63.1636 44.2904L68.7785 34.7652H74.334ZM74.3351 32.9888H68.7796L63.1636 23.4617L74.3351 32.9888ZM59.5362 30.7012L64.0327 28.4877L66.6866 32.9888H60.2737V34.7652H66.6866L63.7718 39.7099L59.4154 37.3622L58.5085 38.8998L62.8649 41.2475L59.6203 46.7531L56.6052 41.9742L56.2246 41.3711L55.9658 40.9603L54.2405 38.225V33.727L54.7948 33.3712L55.9012 32.6625L54.9079 31.1765L52.4267 32.767V38.7298L53.7003 40.7491L54.6536 42.2603L55.21 43.1411L58.0028 47.5673H44.1366L46.4464 43.9069L47.1851 42.7367L47.5345 42.1833L48.4877 40.672L49.7137 38.7298V32.767L47.2325 31.1765L46.2393 32.6625L47.3662 33.3848L47.8999 33.727V38.225L46.4302 40.5547L45.9633 41.2952L45.8576 41.463L42.5202 46.7531L39.0146 40.8062L43.6061 38.5461L42.6981 37.0062L38.1067 39.2673L35.4529 34.7663H42.0501V32.9899H35.4529L38.3676 28.0452L42.9095 30.4932L43.8164 28.9545L39.2745 26.5064L43 20.1867H59.1404L63.1259 26.9479L58.6293 29.1614L59.5362 30.7012ZM54.3991 23.1629H47.7405L46.6955 26.1485L46.427 26.9153L47.3566 27.8257L51.0703 31.4629L54.8519 27.7602L55.7136 26.9153L55.3997 26.0187L54.4002 23.1619L54.3991 23.1629ZM53.076 26.9871L51.0692 28.9525L49.0625 26.9871L48.5082 26.4443L48.9395 25.2118L49.0344 24.9393H53.1029L53.1979 25.2118L53.6292 26.4443L53.076 26.9871Z" fill="black"/>
</g>
<defs>
<clipPath id="clip0_674_11521">
<rect width="197" height="41" fill="white" transform="translate(24 16)"/>
</clipPath>
</defs>
</svg>
